<?xml version="1.0" encoding="UTF-8" standalone="no" ?>
<!DOCTYPE svg PUBLIC "-//W3C//DTD SVG 1.1//EN" "http://www.w3.org/Graphics/SVG/1.1/DTD/svg11.dtd">
<svg xmlns="http://www.w3.org/2000/svg" xmlns:xlink="http://www.w3.org/1999/xlink" version="1.1" width="1000" height="1000" viewBox="0 0 500 500" xml:space="preserve">
<desc>Created with Fabric.js 4.6.0</desc>
<defs>
</defs>
<g transform="matrix(1 0 0 1 155.96 0.29)" id="mdVUWGwU73vz6AS8q-ZZj"  >
<path style="stroke: rgb(0,0,0); stroke-width: 1; stroke-dasharray: none; stroke-linecap: butt; stroke-dashoffset: 0; stroke-linejoin: miter; stroke-miterlimit: 4; fill: rgb(255,255,255); fill-opacity: 0; fill-rule: nonzero; opacity: 1;" vector-effect="non-scaling-stroke"  transform=" translate(0, 0)" d="M 0 0" stroke-linecap="round" />
</g>
<g transform="matrix(1 0 0 0.98 351.46 122.52)" id="Ujr2liOzAUZo501Y3mu_y"  >
<path style="stroke: rgb(232,248,248); stroke-width: 1; stroke-dasharray: none; stroke-linecap: butt; stroke-dashoffset: 0; stroke-linejoin: miter; stroke-miterlimit: 4; fill: rgb(2,170,176); fill-rule: nonzero; opacity: 1;" vector-effect="non-scaling-stroke"  transform=" translate(0, 0)" d="M 148.43442 -125.23278 L -144.27267 -124.20716 C -144.27267 -124.20716 -124.89129 -91.54272 -125.92490000000001 -66.92463000000001 C -126.95851 -42.30654000000001 -148.08885 -34.71744000000001 -148.40711000000002 -25.73481000000001 C -149.18627 -3.743850000000009 -133.13876000000002 19.96121999999999 -119.66399000000001 41.17681999999999 C -106.18922 62.39241999999999 -146.68521 113.02665999999999 -75.51261000000001 124.49454999999999 C -45.91309000000001 129.26386 -10.702670000000012 109.56237999999999 30.132189999999994 104.38762 C 48.96494 102.00106 73.95978 115.63753 91.26592 113.04508 C 146.09677 104.83144 148.41099 92.06428 148.41099 92.06428 z" stroke-linecap="round" />
</g>
<g transform="matrix(1 0 0 1 0.25 280.68)" id="kO-3JL2T2Pfuu3yGPUFXz"  >
<path style="stroke: rgb(0,0,0); stroke-width: 1; stroke-dasharray: none; stroke-linecap: butt; stroke-dashoffset: 0; stroke-linejoin: miter; stroke-miterlimit: 4; fill: rgb(255,255,255); fill-opacity: 0; fill-rule: nonzero; opacity: 1;" vector-effect="non-scaling-stroke"  transform=" translate(0, 0)" d="M 0 0" stroke-linecap="round" />
</g>
</svg>