<?xml version="1.0" encoding="UTF-8" standalone="no" ?>
<!DOCTYPE svg PUBLIC "-//W3C//DTD SVG 1.1//EN" "http://www.w3.org/Graphics/SVG/1.1/DTD/svg11.dtd">
<svg xmlns="http://www.w3.org/2000/svg" xmlns:xlink="http://www.w3.org/1999/xlink" version="1.1" width="625.449787685159" height="475.16999001222945" viewBox="56.665106157420496 43.510009987770644 625.449787685159 475.16999001222945" xml:space="preserve">
<desc>Created with Fabric.js 4.6.0</desc>
<defs>
</defs>
<g transform="matrix(1 0 0 1 369.39 258.39)" id="28ZnGtz2D4Sa-TyxuunH0"  >
<path style="stroke: none; stroke-width: 1; stroke-dasharray: none; stroke-linecap: butt; stroke-dashoffset: 0; stroke-linejoin: miter; stroke-miterlimit: 4; fill: rgb(63,61,86); fill-rule: nonzero; opacity: 1;" vector-effect="non-scaling-stroke"  transform=" translate(-719.39, -400.04)" d="M 1022.88857 185.66433 L 415.88856999999996 185.66433 C 411.07450680377116 185.6687077496453 407.17307316715033 189.5702666656809 407.16884999999996 194.38433 L 407.16884999999996 605.70431 C 407.17307316715033 610.5183733343191 411.07450680377116 614.4199322503547 415.88856999999996 614.42431 L 1022.88857 614.42431 C 1025.4401496601465 614.4244291719681 1027.863533133241 613.3060069078005 1029.51894 611.36431 C 1029.588179979398 611.2891688329179 1029.6516911752312 611.2089441644971 1029.70894 611.12431 C 1030.2294455681558 610.4878916397683 1030.6508632068924 609.7765218088754 1030.95894 609.01426 C 1031.3976819387292 607.966055696754 1031.62198211128 606.8405765542519 1031.6186 605.7042600000001 L 1031.6186 194.38436 C 1031.6133571252617 189.566688880867 1027.7062439638685 185.6640512059973 1022.88857 185.66433 Z M 1029.12881 605.70433 C 1029.1297728364732 606.9209296119498 1028.7713502028732 608.1107085137163 1028.09853 609.12433 C 1027.5008001839783 610.0165515143842 1026.6896147768832 610.7452867203039 1025.73867 611.24433 C 1024.857694623425 611.6995017123307 1023.8801826129143 611.936154211279 1022.88857 611.93433 L 415.88856999999996 611.93433 C 412.44956749605365 611.9301534061104 409.66274659388955 609.1433325039463 409.65856999999994 605.70433 L 409.65856999999994 194.38436 C 409.66274659388955 190.94535749605367 412.44956749605365 188.15853659388958 415.88856999999996 188.15436 L 1022.88857 188.15436 C 1026.331144412078 188.1539201744413 1029.123596054355 190.94178950821453 1029.12881 194.38436 Z" stroke-linecap="round" />
</g>
<g transform="matrix(1 0 0 1 369.39 80.21)" id="L3raPQU8sc9rx4b-5a1kN"  >
<path style="stroke: none; stroke-width: 1; stroke-dasharray: none; stroke-linecap: butt; stroke-dashoffset: 0; stroke-linejoin: miter; stroke-miterlimit: 4; fill: rgb(63,61,86); fill-rule: nonzero; opacity: 1;" vector-effect="non-scaling-stroke"  transform=" translate(-310.98, -1.25)" d="M 0 2.49281 L 0 0 L 621.95676 0 L 621.95676 2.49281 z" stroke-linecap="round" />
</g>
<g transform="matrix(1 0 0 1 79.6 62.71)" id="c1p80tRP0_-VuDiNYYi-l"  >
<path style="stroke: none; stroke-width: 1; stroke-dasharray: none; stroke-linecap: butt; stroke-dashoffset: 0; stroke-linejoin: miter; stroke-miterlimit: 4; fill: rgb(2,170,176); fill-rule: nonzero; opacity: 1;" vector-effect="non-scaling-stroke"  transform=" translate(-7.48, -7.48)" d="M 0 7.47844 C 0 3.34821 3.34821 0 7.47844 0 C 11.60867 0 14.95688 3.34821 14.95688 7.47844 C 14.95688 11.60867 11.60867 14.95688 7.47844 14.95688 C 3.34821 14.95688 0 11.60867 0 7.47844 z" stroke-linecap="round" />
</g>
<g transform="matrix(1 0 0 1 101.1 62.71)" id="yOvc9elD7hm6ex-5T8sp_"  >
<path style="stroke: none; stroke-width: 1; stroke-dasharray: none; stroke-linecap: butt; stroke-dashoffset: 0; stroke-linejoin: miter; stroke-miterlimit: 4; fill: rgb(2,170,176); fill-rule: nonzero; opacity: 1;" vector-effect="non-scaling-stroke"  transform=" translate(-7.48, -7.48)" d="M 0 7.47844 C 0 3.34821 3.34821 0 7.47844 0 C 11.60867 0 14.95688 3.34821 14.95688 7.47844 C 14.95688 11.60867 11.60867 14.95688 7.47844 14.95688 C 3.34821 14.95688 0 11.60867 0 7.47844 z" stroke-linecap="round" />
</g>
<g transform="matrix(1 0 0 1 121.61 62.71)" id="25InrJDgIh6E-yXgc9S3j"  >
<path style="stroke: none; stroke-width: 1; stroke-dasharray: none; stroke-linecap: butt; stroke-dashoffset: 0; stroke-linejoin: miter; stroke-miterlimit: 4; fill: rgb(2,170,176); fill-rule: nonzero; opacity: 1;" vector-effect="non-scaling-stroke"  transform=" translate(-7.48, -7.48)" d="M 0 7.47844 C 0 3.34821 3.34821 0 7.47844 0 C 11.60867 0 14.95688 3.34821 14.95688 7.47844 C 14.95688 11.60867 11.60867 14.95688 7.47844 14.95688 C 3.34821 14.95688 0 11.60867 0 7.47844 z" stroke-linecap="round" />
</g>
<g transform="matrix(1 0 0 1 384.11 226.18)" id="YAKrTxfHCuNMxNfF1EYcP"  >
<path style="stroke: none; stroke-width: 1; stroke-dasharray: none; stroke-linecap: butt; stroke-dashoffset: 0; stroke-linejoin: miter; stroke-miterlimit: 4; fill: rgb(255,255,255); fill-rule: nonzero; opacity: 1;" vector-effect="non-scaling-stroke"  transform=" translate(-734.11, -367.84)" d="M 976.61426 435.83545 L 491.61425999999994 435.83545 C 482.5058268242693 435.82516112302596 475.12454887697396 428.44388317573055 475.11425999999994 419.33545 L 475.11425999999994 316.33545 C 475.12454337795754 307.2270145428636 482.5058245428636 299.8457333779576 491.61425999999994 299.83545 L 976.61426 299.83545 C 985.7226178912085 299.84592033737965 993.1037896626203 307.22709210879134 993.11426 316.33545 L 993.11426 419.33545 C 993.1037896626203 428.44380789120856 985.7226178912085 435.8249796626203 976.61426 435.83545 Z" stroke-linecap="round" />
</g>
<g transform="matrix(1 0 0 1 387.11 463.68)" id="lpg2Th0PQEzuOLia82TK0"  >
<path style="stroke: none; stroke-width: 1; stroke-dasharray: none; stroke-linecap: butt; stroke-dashoffset: 0; stroke-linejoin: miter; stroke-miterlimit: 4; fill: rgb(2,170,176); fill-rule: nonzero; opacity: 1;" vector-effect="non-scaling-stroke"  transform=" translate(-737.11, -605.34)" d="M 790.61417 659.83567 L 683.61417 659.83567 C 674.5057368242693 659.8253811230261 667.1244588769739 652.4441031757307 667.11417 643.33567 L 667.11417 567.33567 C 667.1244643759777 558.2272391056719 674.5057391056718 550.8459643759778 683.61417 550.83567 L 790.61417 550.83567 C 799.7226031757306 550.8459588769741 807.103881123026 558.2272368242694 807.11417 567.33567 L 807.11417 643.33567 C 807.1038866220423 652.4441054571364 799.7226054571363 659.8253866220424 790.61417 659.83567 Z" stroke-linecap="round" />
</g>
<g transform="matrix(1 0 0 1 387.07 450.18)" id="re32J4Lnu1BTxkZzRQ50e"  >
<path style="stroke: none; stroke-width: 1; stroke-dasharray: none; stroke-linecap: butt; stroke-dashoffset: 0; stroke-linejoin: miter; stroke-miterlimit: 4; fill: rgb(255,255,255); fill-rule: nonzero; opacity: 1;" vector-effect="non-scaling-stroke"  transform=" translate(-737.07, -591.84)" d="M 751.06693 599.83567 L 723.06693 599.83567 C 718.6486520013536 599.83567 715.06693 596.2539479986464 715.06693 591.83567 C 715.06693 587.4173920013537 718.6486520013536 583.83567 723.06693 583.83567 L 751.06693 583.83567 C 755.4852079986463 583.83567 759.06693 587.4173920013537 759.06693 591.83567 C 759.06693 596.2539479986464 755.4852079986463 599.83567 751.06693 599.83567 Z" stroke-linecap="round" />
</g>
<g transform="matrix(1 0 0 1 387.11 477.18)" id="zEdF9fwBG5K3HmciQ3lnG"  >
<path style="stroke: none; stroke-width: 1; stroke-dasharray: none; stroke-linecap: butt; stroke-dashoffset: 0; stroke-linejoin: miter; stroke-miterlimit: 4; fill: rgb(255,255,255); fill-rule: nonzero; opacity: 1;" vector-effect="non-scaling-stroke"  transform=" translate(-737.11, -618.84)" d="M 767.61417 626.83567 L 706.61417 626.83567 C 702.1958920013536 626.83567 698.61417 623.2539479986464 698.61417 618.83567 C 698.61417 614.4173920013537 702.1958920013536 610.83567 706.61417 610.83567 L 767.61417 610.83567 C 772.0324479986463 610.83567 775.61417 614.4173920013537 775.61417 618.83567 C 775.61417 623.2539479986464 772.0324479986463 626.83567 767.61417 626.83567 Z" stroke-linecap="round" />
</g>
<g transform="matrix(1 0 0 1 192.11 405.68)" id="nzgZWa6f-zYiD7QFXy7sh"  >
<path style="stroke: none; stroke-width: 1; stroke-dasharray: none; stroke-linecap: butt; stroke-dashoffset: 0; stroke-linejoin: miter; stroke-miterlimit: 4; fill: rgb(2,170,176); fill-rule: nonzero; opacity: 1;" vector-effect="non-scaling-stroke"  transform=" translate(-542.11, -547.34)" d="M 595.61417 601.83567 L 488.61416999999994 601.83567 C 479.5057368242693 601.8253811230261 472.12445887697396 594.4441031757307 472.11416999999994 585.33567 L 472.11416999999994 509.33567000000005 C 472.12446437597765 500.2272391056719 479.5057391056718 492.84596437597776 488.61416999999994 492.83567000000005 L 595.61417 492.83567000000005 C 604.7226031757306 492.84595887697407 612.103881123026 500.2272368242694 612.11417 509.33567000000005 L 612.11417 585.33567 C 612.1038866220423 594.4441054571364 604.7226054571363 601.8253866220424 595.61417 601.83567 Z" stroke-linecap="round" />
</g>
<g transform="matrix(1 0 0 1 192.07 392.18)" id="K0JZwHqImCZ8_KyZ5yZv7"  >
<path style="stroke: none; stroke-width: 1; stroke-dasharray: none; stroke-linecap: butt; stroke-dashoffset: 0; stroke-linejoin: miter; stroke-miterlimit: 4; fill: rgb(255,255,255); fill-rule: nonzero; opacity: 1;" vector-effect="non-scaling-stroke"  transform=" translate(-542.07, -533.84)" d="M 556.06693 541.83567 L 528.06693 541.83567 C 523.6486520013536 541.83567 520.06693 538.2539479986464 520.06693 533.83567 C 520.06693 529.4173920013537 523.6486520013536 525.83567 528.06693 525.83567 L 556.06693 525.83567 C 560.4852079986463 525.83567 564.06693 529.4173920013537 564.06693 533.83567 C 564.06693 538.2539479986464 560.4852079986463 541.83567 556.06693 541.83567 Z" stroke-linecap="round" />
</g>
<g transform="matrix(1 0 0 1 192.11 419.18)" id="72vQ47UrtIi9GJhOPCwfH"  >
<path style="stroke: none; stroke-width: 1; stroke-dasharray: none; stroke-linecap: butt; stroke-dashoffset: 0; stroke-linejoin: miter; stroke-miterlimit: 4; fill: rgb(255,255,255); fill-rule: nonzero; opacity: 1;" vector-effect="non-scaling-stroke"  transform=" translate(-542.11, -560.84)" d="M 572.61417 568.83567 L 511.61416999999994 568.83567 C 507.19589200135357 568.83567 503.61416999999994 565.2539479986464 503.61416999999994 560.83567 C 503.61416999999994 556.4173920013537 507.19589200135357 552.83567 511.61416999999994 552.83567 L 572.61417 552.83567 C 577.0324479986463 552.83567 580.61417 556.4173920013537 580.61417 560.83567 C 580.61417 565.2539479986464 577.0324479986463 568.83567 572.61417 568.83567 Z" stroke-linecap="round" />
</g>
<g transform="matrix(1 0 0 1 576.11 430.68)" id="-UMoWGRWDE81BYUmO5xbL"  >
<path style="stroke: none; stroke-width: 1; stroke-dasharray: none; stroke-linecap: butt; stroke-dashoffset: 0; stroke-linejoin: miter; stroke-miterlimit: 4; fill: rgb(36,36,36); fill-rule: nonzero; opacity: 1;" vector-effect="non-scaling-stroke"  transform=" translate(-926.11, -576.34)" d="M 979.61417 630.83567 L 872.61417 630.83567 C 863.5057368242693 630.8253811230261 856.1244588769739 623.4441031757307 856.11417 614.33567 L 856.11417 538.33567 C 856.1244643759777 529.2272391056719 863.5057391056718 521.8459643759778 872.61417 521.83567 L 979.61417 521.83567 C 988.7226031757306 521.8459588769741 996.103881123026 529.2272368242694 996.11417 538.33567 L 996.11417 614.33567 C 996.1038866220423 623.4441054571364 988.7226054571363 630.8253866220424 979.61417 630.83567 Z" stroke-linecap="round" />
</g>
<g transform="matrix(1 0 0 1 576.07 421.18)" id="v6cAqrhHI0S_O77sstW51"  >
<path style="stroke: none; stroke-width: 1; stroke-dasharray: none; stroke-linecap: butt; stroke-dashoffset: 0; stroke-linejoin: miter; stroke-miterlimit: 4; fill: rgb(255,255,255); fill-rule: nonzero; opacity: 1;" vector-effect="non-scaling-stroke"  transform=" translate(-926.07, -562.84)" d="M 940.06693 570.83567 L 912.06693 570.83567 C 907.6486520013536 570.83567 904.06693 567.2539479986464 904.06693 562.83567 C 904.06693 558.4173920013537 907.6486520013536 554.83567 912.06693 554.83567 L 940.06693 554.83567 C 944.4852079986463 554.83567 948.06693 558.4173920013537 948.06693 562.83567 C 948.06693 567.2539479986464 944.4852079986463 570.83567 940.06693 570.83567 Z" stroke-linecap="round" />
</g>
<g transform="matrix(1 0 0 1 576.11 448.18)" id="Z-9OvVzxGxUzl_i_bvxv4"  >
<path style="stroke: none; stroke-width: 1; stroke-dasharray: none; stroke-linecap: butt; stroke-dashoffset: 0; stroke-linejoin: miter; stroke-miterlimit: 4; fill: rgb(255,255,255); fill-rule: nonzero; opacity: 1;" vector-effect="non-scaling-stroke"  transform=" translate(-926.11, -589.84)" d="M 956.61417 597.83567 L 895.61417 597.83567 C 891.1958920013536 597.83567 887.61417 594.2539479986464 887.61417 589.83567 C 887.61417 585.4173920013537 891.1958920013536 581.83567 895.61417 581.83567 L 956.61417 581.83567 C 961.0324479986463 581.83567 964.61417 585.4173920013537 964.61417 589.83567 C 964.61417 594.2539479986464 961.0324479986463 597.83567 956.61417 597.83567 Z" stroke-linecap="round" />
</g>
<g transform="matrix(1 0 0 1 386.03 243.68)" id="6h-W0oAGRqzIP6cKj1aNw"  >
<path style="stroke: none; stroke-width: 1; stroke-dasharray: none; stroke-linecap: butt; stroke-dashoffset: 0; stroke-linejoin: miter; stroke-miterlimit: 4; fill: rgb(2,170,176); fill-rule: nonzero; opacity: 1;" vector-effect="non-scaling-stroke"  transform=" translate(-736.03, -385.33)" d="M 842.88419 434.071 L 842.88419 435.33568 L 629.184 435.33568 L 629.184 434.01218 L 630.33439 432.38469 L 698.08439 336.73758999999995 C 698.7206099355926 335.8556902217221 699.7418212544277 335.3331934852762 700.82926 335.3331934852762 C 701.9166987455723 335.3331934852762 702.9379100644073 335.8556902217221 703.57413 336.73758999999995 L 749.0043099999999 400.87485999999996 L 781.34415 355.62 C 781.9810237383853 354.74235581998283 782.9997757724555 354.22290608857844 784.08415 354.22290608857844 C 785.1685242275446 354.22290608857844 786.1872762616148 354.74235581998283 786.82415 355.62 L 841.73431 432.45336 Z" stroke-linecap="round" />
</g>
<g transform="matrix(1 0 0 1 278.74 203.91)" id="ca45ChAJIWLXIG5RXZBfO"  >
<path style="stroke: none; stroke-width: 1; stroke-dasharray: none; stroke-linecap: butt; stroke-dashoffset: 0; stroke-linejoin: miter; stroke-miterlimit: 4; fill: rgb(2,170,176); fill-rule: nonzero; opacity: 1;" vector-effect="non-scaling-stroke"  transform=" translate(-24.87, -24.87)" d="M 0 24.87333 C 0 11.13617 11.13617 0 24.87333 0 C 38.61049 0 49.74666 11.13617 49.74666 24.87333 C 49.74666 38.61049 38.61049 49.74666 24.87333 49.74666 C 11.13617 49.74666 0 38.61049 0 24.87333 z" stroke-linecap="round" />
</g>
<g transform="matrix(1 0 0 1 384.11 226.18)" id="oX7y25LEG3m8QaAbD2Ei0"  >
<path style="stroke: none; stroke-width: 1; stroke-dasharray: none; stroke-linecap: butt; stroke-dashoffset: 0; stroke-linejoin: miter; stroke-miterlimit: 4; fill: rgb(63,61,86); fill-rule: nonzero; opacity: 1;" vector-effect="non-scaling-stroke"  transform=" translate(-734.11, -367.84)" d="M 976.61417 436.33567 L 491.61416999999994 436.33567 C 482.2297064142748 436.3251109983967 474.6247290016032 428.72013358572514 474.61416999999994 419.33567 L 474.61416999999994 316.33567 C 474.62473450070064 306.95120869570184 482.22970869570173 299.3462345007007 491.61416999999994 299.33567 L 976.61417 299.33567 C 985.9986313042981 299.3462345007007 993.6036054992992 306.95120869570184 993.61417 316.33567 L 993.61417 419.33567 C 993.6036109983967 428.72013358572514 985.9986335857251 436.3251109983967 976.61417 436.33567 Z M 491.61416999999994 301.33567 C 483.33378242587884 301.34503852176994 476.6235385217699 308.0552824258789 476.61416999999994 316.33567 L 476.61416999999994 419.33567 C 476.6235385217699 427.6160575741211 483.33378242587884 434.32630147823005 491.61416999999994 434.33567 L 976.61417 434.33567 C 984.8945575741211 434.32630147823005 991.60480147823 427.61605757412116 991.61417 419.33567 L 991.61417 316.33567 C 991.60480147823 308.0552824258789 984.8945575741211 301.34503852176994 976.61417 301.33567 Z" stroke-linecap="round" />
</g>
</svg>