<?xml version="1.0" encoding="UTF-8" standalone="no" ?>
<!DOCTYPE svg PUBLIC "-//W3C//DTD SVG 1.1//EN" "http://www.w3.org/Graphics/SVG/1.1/DTD/svg11.dtd">
<svg xmlns="http://www.w3.org/2000/svg" xmlns:xlink="http://www.w3.org/1999/xlink" version="1.1" width="500" height="500" viewBox="0 0 500 500" xml:space="preserve">
<desc>Created with Fabric.js 4.6.0</desc>
<defs>
</defs>
<g transform="matrix(0.56 0 0 0.56 257.28 263.04)" id="FAf_OTxQiquhOgfkyBcYF"  >
<path style="stroke: none; stroke-width: 1; stroke-dasharray: none; stroke-linecap: butt; stroke-dashoffset: 0; stroke-linejoin: miter; stroke-miterlimit: 4; fill: rgb(242,242,242); fill-rule: nonzero; opacity: 1;" vector-effect="non-scaling-stroke"  transform=" translate(0, 0)" d="M 333.75988 -198.59029 C 326.22842 -212.17696 317.87243 -225.28992 308.73876 -237.85561 C 302.33868 -246.67141 295.57607 -255.19302000000002 288.45092 -263.42043 L 288.4331 -263.42043 C 275.54041 -278.31448 261.51905000000005 -292.19279 246.49359000000004 -304.93209 C 243.41833000000003 -307.54384 240.30147000000005 -310.10209000000003 237.14300000000003 -312.60683 C 208.63336000000004 -335.28777 177.01748000000003 -353.76162 143.26141 -367.46389 L 143.56091 -318.13662 L 146.791 244.16587000000004 L -133.173 244.16587000000004 L -148.918 -317.0757 L -147.745 -365.61519 C -285.00263 -307.88759 -381.37781 -172.15981 -381.37781 -13.913839999999993 C -381.40338 18.74884000000001 -377.23627 51.27971000000001 -368.97864 82.88133 C -365.49081 96.24008 -361.26815999999997 109.3961 -356.32995999999997 122.28933 C -354.54718999999994 126.96907 -352.66639999999995 131.60723000000002 -350.68757 136.20382 C -349.73377 138.44118 -348.76215 140.66072 -347.75489 142.87136 C -346.46241 145.75942 -345.1164 148.63857000000002 -343.73474999999996 151.48207000000002 C -342.66510999999997 153.71944000000002 -341.56573999999995 155.94196000000002 -340.43665 158.14962000000003 C -338.98371 161.04665000000003 -337.4832 163.91988000000003 -335.93512999999996 166.76931000000002 C -334.74073 169.00667 -333.51062999999994 171.22622 -332.26264 173.43679000000003 C -312.12951 209.04863000000003 -286.42003 241.20429000000001 -256.11194 268.68093000000005 C -247.47443 276.51619000000005 -238.48633 283.94437000000005 -229.14765 290.96547000000004 C -93.40813 392.96336 93.40775000000002 392.96336 229.14727 290.96547000000004 C 234.22814 287.15035000000006 239.20503 283.20748000000003 244.07793999999998 279.13686 C 247.31365 276.44486 250.49587999999997 273.70237000000003 253.62463 270.90938 C 254.45363 270.16957 255.28262999999998 269.42971 256.10272 268.68093 C 284.04512 243.35046 308.09263999999996 214.03148 327.46672 181.67324 C 334.58153 169.81001 341.03314 157.56143 346.79185 144.98390999999998 C 348.31609000000003 141.66798999999997 349.7928 138.32232 351.22197 134.94690999999997 C 357.80021 119.47132999999997 363.33325 103.57203999999997 367.78386 87.35602999999998 C 368.47026 84.85126999999997 369.13286 82.33759999999998 369.77165 79.81502999999998 L 369.77165 79.80611999999998 C 369.87859000000003 79.36934999999998 369.99449000000004 78.92360999999998 370.10143000000005 78.48684999999998 C 370.76109 75.83052999999998 371.39397 73.15639999999998 372.00011000000006 70.48220999999998 L 372.00011000000006 70.47335999999999 C 373.96117000000004 61.85366999999999 375.61617000000007 53.130009999999984 376.96511000000004 44.302359999999986 C 377.13449 43.17035999999999 377.30386000000004 42.03825999999999 377.46432000000004 40.90623999999998 C 377.52670000000006 40.496239999999986 377.58914000000004 40.08616999999998 377.63369000000006 39.67606999999998 L 377.63369000000006 39.66715999999998 C 378.5964000000001 32.84812999999998 379.37784000000005 25.978569999999984 379.97799000000003 19.058459999999982 C 380.90505 8.192459999999983 381.37154000000004 -2.798280000000016 381.37747 -13.91377000000002 C 381.4784 -78.52165000000002 365.08867000000004 -142.08635000000004 333.75988 -198.59029000000004 z" stroke-linecap="round" />
</g>
<g transform="matrix(0.56 0 0 0.56 399.33 373.4)" id="oEz20yG29fZUNOzqrWpgY"  >
<path style="stroke: none; stroke-width: 1; stroke-dasharray: none; stroke-linecap: butt; stroke-dashoffset: 0; stroke-linejoin: miter; stroke-miterlimit: 4; fill: rgb(230,230,230); fill-rule: nonzero; opacity: 1;" vector-effect="non-scaling-stroke"  transform=" translate(-873.98, -668.64)" d="M 917.16512 689.76186 C 939.73855 659.2610099999999 948.41999 616.2986599999999 930.86062 582.66094 C 914.392652622902 620.4970128872135 885.0723033003854 651.2886570846135 848.0871900000001 669.58794 C 833.7980100000001 676.5935 817.1755300000001 682.89754 810.5614800000001 697.37221 C 806.4458800000001 706.37861 807.2296100000001 717.01336 810.5379100000001 726.34621 C 813.8466100000002 735.67943 819.4736900000001 743.98383 825.0413700000001 752.17272 L 825.3346400000001 754.6272200000001 C 860.38673 740.09412 894.59169 720.2627 917.16512 689.76186 Z" stroke-linecap="round" />
</g>
<g transform="matrix(0.56 0 0 0.56 402.03 373.08)" id="xRyHCn9Vg1CBsWyhvY69y"  >
<path style="stroke: none; stroke-width: 1; stroke-dasharray: none; stroke-linecap: butt; stroke-dashoffset: 0; stroke-linejoin: miter; stroke-miterlimit: 4; fill: rgb(255,255,255); fill-rule: nonzero; opacity: 1;" vector-effect="non-scaling-stroke"  transform=" translate(-878.78, -668.07)" d="M 930.11157 582.93088 C 929.1001233054285 614.322679757931 918.2231774529699 644.5977163809289 899.02567 669.45579 C 894.9878941905384 674.8805347960354 890.1202670690387 679.6349121567644 884.60199 683.54389 C 879.1034376003986 687.178036855796 872.7320246587033 689.2734500857925 866.14976 689.6124100000001 C 860.01876 690.0517600000001 853.69659 689.79118 847.77918 691.7132300000001 C 841.6822938762193 693.7941263621442 836.7633166685871 698.3781716176209 834.25835 704.31343 C 830.98218 711.5449500000001 830.49979 719.52238 830.2991599999999 727.34004 C 830.0763999999999 736.02004 829.98255 745.0394100000001 825.8883 752.92993 C 825.3922299999999 753.88598 826.9046999999999 754.59982 827.4000199999999 753.64521 C 834.5233 739.91706 829.8979599999999 723.86321 834.14302 709.43167 C 836.12383 702.69767 840.14602 696.5197400000001 846.86882 693.82118 C 852.74762 691.4614 859.2673500000001 691.72454 865.4789400000001 691.33334 C 871.9049821378431 691.0968060026021 878.1753612323749 689.2903827977914 883.74233 686.07187 C 889.4418150147109 682.4564691274002 894.4844984441521 677.8975341363971 898.65444 672.59029 C 908.2329086271131 660.7916987087016 915.8966942842778 647.5604319919408 921.36505 633.38119 C 927.6957884558977 617.2331414473973 931.21754182553 600.1211286892838 931.77794 582.7855099999999 C 931.8121799999999 581.71251 930.1456199999999 581.8649099999999 930.1116 582.9308799999999 Z" stroke-linecap="round" />
</g>
<g transform="matrix(0.56 0 0 0.56 425.17 368.53)" id="0pCmC1XAoF9bRIw9v0y5K"  >
<path style="stroke: none; stroke-width: 1; stroke-dasharray: none; stroke-linecap: butt; stroke-dashoffset: 0; stroke-linejoin: miter; stroke-miterlimit: 4; fill: rgb(255,255,255); fill-rule: nonzero; opacity: 1;" vector-effect="non-scaling-stroke"  transform=" translate(-919.84, -660)" d="M 905.67833 661.81545 C 915.1953009365997 667.2984387304941 927.2831820045593 665.0794542356389 934.2322399999999 656.57378 C 934.9101599999999 655.7381600000001 933.6434999999999 654.64544 932.96467 655.4821800000001 C 926.5059404216013 663.417525108477 915.2286330258379 665.4638906457963 906.39361 660.3037300000001 C 905.46372 659.7620900000001 904.7537599999999 661.27691 905.67833 661.81545 Z" stroke-linecap="round" />
</g>
<g transform="matrix(0.56 0 0 0.56 396.69 376.48)" id="P_29WaqVsJRUya418AzIs"  >
<path style="stroke: none; stroke-width: 1; stroke-dasharray: none; stroke-linecap: butt; stroke-dashoffset: 0; stroke-linejoin: miter; stroke-miterlimit: 4; fill: rgb(255,255,255); fill-rule: nonzero; opacity: 1;" vector-effect="non-scaling-stroke"  transform=" translate(-869.3, -674.11)" d="M 869.28775 689.79907 C 866.3707318350977 679.3268431873953 867.5079885474926 668.1399006394294 872.4727499999999 658.46893 C 872.9654199999999 657.51116 871.4531099999999 656.79704 870.9610299999999 657.75365 C 865.8133783760856 667.8271349258027 864.6535564331855 679.4712687345501 867.7130299999999 690.36223 C 868.0053599999999 691.4001 869.5784999999998 690.8312999999999 869.2877599999999 689.7990699999999 Z" stroke-linecap="round" />
</g>
<g transform="matrix(0.56 0 0 0.56 425.7 342.3)" id="TwQdxU_m1jpmeeO36218h"  >
<path style="stroke: none; stroke-width: 1; stroke-dasharray: none; stroke-linecap: butt; stroke-dashoffset: 0; stroke-linejoin: miter; stroke-miterlimit: 4; fill: rgb(255,255,255); fill-rule: nonzero; opacity: 1;" vector-effect="non-scaling-stroke"  transform=" translate(-920.77, -613.46)" d="M 925.47961 617.31069 C 921.4231572272839 615.9788082437801 918.3082958413132 612.6964513316885 917.19051 608.57586 C 916.91151 607.5348 915.33857 608.1047500000001 915.61578 609.1390200000001 C 916.8713896900538 613.6838771603271 920.2980599965565 617.3108727730289 924.76433 618.8224 C 925.1824309722548 619.0040915579852 925.6697639814975 618.8298114703243 925.87783 618.4241900000001 C 926.0728522326142 618.0066201252057 925.8952053863926 617.5098852468277 925.47961 617.31069 Z" stroke-linecap="round" />
</g>
<g transform="matrix(0.56 0 0 0.56 367.85 366.45)" id="6Ysxso6I9Ntyl-JCJttdz"  >
<path style="stroke: none; stroke-width: 1; stroke-dasharray: none; stroke-linecap: butt; stroke-dashoffset: 0; stroke-linejoin: miter; stroke-miterlimit: 4; fill: rgb(230,230,230); fill-rule: nonzero; opacity: 1;" vector-effect="non-scaling-stroke"  transform=" translate(-818.13, -656.31)" d="M 805.2047 555.89147 C 805.36044 556.54647 805.51618 557.20147 805.6627 557.86721 C 807.7109559781849 566.6841867366901 809.0395259374822 575.6529937856851 809.6352999999999 584.6851299999998 C 809.6924599999999 585.38271 809.7398699999999 586.09053 809.7768699999999 586.7882999999999 C 810.9802587020584 608.5640307255501 808.1303506803109 630.3739302320049 801.37202 651.1092999999998 C 798.675148222876 659.3579424230771 795.3546259893452 667.3894527756839 791.4391999999999 675.1342999999999 C 786.0312499999999 685.82993 779.3166499999999 696.9964299999999 777.80243 708.51488 C 777.6309581206255 709.7148329813015 777.5339824176277 710.9242556240669 777.5120599999999 712.1361999999999 L 822.3175399999999 754.7946 C 822.4680099999999 754.8404499999999 822.6093099999999 754.89694 822.7602799999999 754.9432599999999 L 824.4713499999998 756.7282599999999 C 824.7011799999998 756.3429299999999 824.9312799999998 755.9383399999998 825.1611099999998 755.5530099999999 C 825.2953599999997 755.3300099999999 825.4196299999998 755.0975699999999 825.5538799999998 754.8745999999999 C 825.6402199999998 754.7229499999999 825.7261199999998 754.5707599999998 825.8126999999998 754.4388399999999 C 825.8416299999998 754.3884699999999 825.8700499999999 754.3376199999999 825.8892999999998 754.2974199999999 C 825.9758799999998 754.1654999999998 826.0422999999998 754.0337699999999 826.1191299999998 753.9120899999999 Q 828.0577299999998 750.52509 829.9554499999998 747.0990899999999 C 829.9651899999998 747.08885 829.9651899999998 747.08885 829.9649499999998 747.06909 C 839.5603599999998 729.64141 847.7851299999999 711.25955 852.9584299999998 692.2137 C 853.1138799999998 691.64063 853.2795799999998 691.0578 853.4145599999998 690.46524 C 855.6988056404526 681.8673170591586 857.2765077028164 673.0970815443857 858.1319099999998 664.2421200000001 C 858.5847094203751 659.3919172100552 858.791684292499 654.521901567588 858.7520399999999 649.6507699999999 C 858.625396170689 637.0646995117978 856.5198458820145 624.5768755501747 852.5125799999998 612.6451099999999 C 844.5206399999998 588.8604399999999 829.0108999999999 567.89649 806.9022599999998 556.7281099999999 C 806.33646 556.44288 805.78022 556.16654 805.2047 555.89147 Z" stroke-linecap="round" />
</g>
<g transform="matrix(0.56 0 0 0.56 367.31 365.94)" id="lsvctacVXFltmAsJtr-Go"  >
<path style="stroke: none; stroke-width: 1; stroke-dasharray: none; stroke-linecap: butt; stroke-dashoffset: 0; stroke-linejoin: miter; stroke-miterlimit: 4; fill: rgb(255,255,255); fill-rule: nonzero; opacity: 1;" vector-effect="non-scaling-stroke"  transform=" translate(-817.17, -655.4)" d="M 804.764 556.55605 C 822.8564423020441 582.229606154165 832.3994721795585 612.9511971175252 832.0376200000001 644.3571999999999 C 832.0797491534017 651.1195775580607 831.0556856615874 657.8463317863526 829.00313 664.2898200000001 C 826.8008470898357 670.5019875473048 822.975212348907 676.0110844410336 817.92372 680.2447000000001 C 813.29301 684.28677 808.0882 687.88511 804.52072 692.9824400000001 C 800.9055496503227 698.3146588818711 799.7379356886488 704.9363149754532 801.31129 711.1834400000001 C 803.04929 718.9298900000001 807.46713 725.5898600000002 812.01371 731.9526100000002 C 817.0618099999999 739.0172300000002 822.41715 746.2751900000002 823.8987699999999 755.0403400000001 C 824.07828 756.1023400000001 825.7156799999999 755.7617100000001 825.5364399999999 754.7013400000001 C 822.9586799999998 739.4514700000001 809.6000899999999 729.4181600000001 804.3007099999999 715.3395600000001 C 801.8279199999998 708.7702300000001 801.3198999999998 701.4158900000001 805.0629599999999 695.2136500000001 C 808.3360999999999 689.7900600000002 813.7001699999998 686.0748300000001 818.4242499999999 682.0226500000001 C 823.4126664837192 677.9648633823953 827.3316182013853 672.7473365260278 829.83877 666.8258400000001 C 832.2127637649807 660.507658869002 833.494269384243 653.8315605185566 833.6284099999999 647.0834300000001 C 834.1727152502481 631.8960150670752 832.325684547145 616.7174601893813 828.1549799999999 602.1038000000001 C 823.487480209974 585.3989445504408 815.9967837156569 569.6156229203621 806.0069799999999 555.4367100000001 C 805.3883199999999 554.55938 804.1493999999999 555.68443 804.7639799999998 556.5560300000001 Z" stroke-linecap="round" />
</g>
<g transform="matrix(0.56 0 0 0.56 381.35 347.75)" id="MAPY3pkj5Aq90-eKVfQtr"  >
<path style="stroke: none; stroke-width: 1; stroke-dasharray: none; stroke-linecap: butt; stroke-dashoffset: 0; stroke-linejoin: miter; stroke-miterlimit: 4; fill: rgb(255,255,255); fill-rule: nonzero; opacity: 1;" vector-effect="non-scaling-stroke"  transform=" translate(-842.08, -623.13)" d="M 832.74939 634.25145 C 843.6492978449267 632.8994434900933 851.9648150358353 623.8499682467767 852.3922399999999 612.8748499999999 C 852.4304299999999 611.7995 850.7611699999999 611.6896499999999 850.7229399999999 612.7664299999999 C 850.3436568790382 622.9909674093512 842.571403217702 631.4146059391999 832.4103499999999 632.6137799999999 C 831.3417799999999 632.7411699999999 831.6869299999998 634.3781099999999 832.7493499999999 634.2514499999999 Z" stroke-linecap="round" />
</g>
<g transform="matrix(0.56 0 0 0.56 364.24 371.63)" id="ry-wbVmQQyjcPJxf_GQ8O"  >
<path style="stroke: none; stroke-width: 1; stroke-dasharray: none; stroke-linecap: butt; stroke-dashoffset: 0; stroke-linejoin: miter; stroke-miterlimit: 4; fill: rgb(255,255,255); fill-rule: nonzero; opacity: 1;" vector-effect="non-scaling-stroke"  transform=" translate(-811.73, -665.5)" d="M 820.54162 678.50445 C 811.9075391797869 671.8992191122862 806.0802516595903 662.2823790214493 804.22172 651.57153 C 804.03845 650.5101800000001 802.401 650.85053 802.58405 651.9105300000001 C 804.5388779557228 663.0528833596127 810.6234094994667 673.0483582236325 819.6233500000001 679.9021500000001 C 820.4816300000001 680.5548300000002 821.3952300000001 679.1535300000002 820.5416200000001 678.5044000000001 Z" stroke-linecap="round" />
</g>
<g transform="matrix(0.56 0 0 0.56 366.48 327.33)" id="TZ5qRCI6k9YB6xNMp4z2d"  >
<path style="stroke: none; stroke-width: 1; stroke-dasharray: none; stroke-linecap: butt; stroke-dashoffset: 0; stroke-linejoin: miter; stroke-miterlimit: 4; fill: rgb(255,255,255); fill-rule: nonzero; opacity: 1;" vector-effect="non-scaling-stroke"  transform=" translate(-815.7, -586.9)" d="M 821.76466 586.79515 C 817.7239266604395 588.1739885805504 813.2606766018771 587.4285722535777 809.8873100000001 584.81149 C 809.0377400000001 584.14827 808.1250000000001 585.55033 808.96905 586.20925 C 812.7079009890972 589.0820947566995 817.6276015838678 589.9149558926953 822.1037100000001 588.43283 C 822.5469345933443 588.3261758277229 822.83111330634 587.8936076048765 822.7530200000001 587.44447 C 822.6573323814338 586.9936436448673 822.2164215598438 586.7039797423673 821.7646600000002 586.79515 Z" stroke-linecap="round" />
</g>
<g transform="matrix(0.56 0 0 0.56 53.52 278.95)" id="0BSZTgB3bimRpRgbDPNB2"  >
<path style="stroke: none; stroke-width: 1; stroke-dasharray: none; stroke-linecap: butt; stroke-dashoffset: 0; stroke-linejoin: miter; stroke-miterlimit: 4; fill: rgb(230,230,230); fill-rule: nonzero; opacity: 1;" vector-effect="non-scaling-stroke"  transform=" translate(-260.39, -501.06)" d="M 215.56773 518.93477 C 195.54773 486.70032 190.38645000000002 443.17455999999993 210.62140000000002 411.07510999999994 C 223.9600385188468 450.12434919142663 250.68102996000346 483.19694817487897 286.05665999999997 504.44140999999985 C 299.72925000000004 512.5850499999999 315.78443000000004 520.2191099999999 321.20027000000005 535.1834099999999 C 324.57033000000007 544.4944899999998 322.92493 555.0304099999998 318.86911000000003 564.0634899999999 C 314.81287000000003 573.0969499999999 308.52952000000005 580.9165799999998 302.31475000000006 588.6259099999999 L 301.8229800000001 591.0484499999999 C 268.06792 573.71482 235.58775 551.16923 215.56773 518.93477 Z" stroke-linecap="round" />
</g>
<g transform="matrix(0.56 0 0 0.56 50.76 278.6)" id="PxuDF4P7p3pyKOKKEN4zA"  >
<path style="stroke: none; stroke-width: 1; stroke-dasharray: none; stroke-linecap: butt; stroke-dashoffset: 0; stroke-linejoin: miter; stroke-miterlimit: 4; fill: rgb(255,255,255); fill-rule: nonzero; opacity: 1;" vector-effect="non-scaling-stroke"  transform=" translate(-255.5, -500.43)" d="M 211.346 411.405 C 209.8029513883949 442.7751631961904 218.18352767867648 473.834006778284 235.29737000000003 500.1700000000001 C 238.8809364682574 505.9049448321483 243.3460877244734 511.0391801596903 248.52844 515.38369 C 253.71346478508644 519.4526565489789 259.8935044535959 522.0589220209819 266.42644 522.93169 C 272.50144 523.86784 278.82389 524.12191 284.56552 526.5185 C 290.4731338183132 529.0879887851839 295.00330804156226 534.0566274045038 297.01764 540.17583 C 299.69529 547.64968 299.52777 555.63993 299.09241 563.44803 C 298.60902 572.11744 297.96957999999995 581.11459 301.40903999999995 589.31174 C 301.8257699999999 590.30494 300.2603 590.8935 299.84418999999997 589.9018 C 293.86012999999997 575.6401599999999 299.77482999999995 560.01532 296.71666999999997 545.28651 C 295.28966999999994 538.41378 291.78284999999994 531.92945 285.30159 528.6934600000001 C 279.63401 525.86373 273.11445999999995 525.5961500000001 266.95520999999997 524.7014600000001 C 260.5696510354935 523.943467058516 254.46682241157836 521.6334370152601 249.17982999999998 517.9731600000001 C 243.79301099485744 513.9065308576792 239.13750075046215 508.9528646827271 235.41266 503.32429000000013 C 226.82474224637838 490.7863159675177 220.26160005050056 476.97601238551863 215.96365999999998 462.3992900000001 C 210.96617931894 445.7901716403343 208.8467363562823 428.44855674350134 209.69702999999998 411.1247400000002 C 209.75008999999997 410.05253000000016 211.39875999999998 410.33984000000015 211.34602999999998 411.40505000000013 Z" stroke-linecap="round" />
</g>
<g transform="matrix(0.56 0 0 0.56 28.18 271.96)" id="d8-12Ew61NTuxa16IBikh"  >
<path style="stroke: none; stroke-width: 1; stroke-dasharray: none; stroke-linecap: butt; stroke-dashoffset: 0; stroke-linejoin: miter; stroke-miterlimit: 4; fill: rgb(255,255,255); fill-rule: nonzero; opacity: 1;" vector-effect="non-scaling-stroke"  transform=" translate(-215.44, -488.65)" d="M 229.28767 492.01431 C 219.3565904708627 496.70574300663907 207.4890239518545 493.5117445956222 201.25419 484.46947 C 200.64642 483.58152 201.99769999999998 482.59535 202.60628 483.48447 C 208.39874708137538 491.9184652312196 219.4724508109809 494.8745562574993 228.69761 490.44946999999996 C 229.66844 489.98519 230.25295 491.55269 229.28767 492.01430999999997 Z" stroke-linecap="round" />
</g>
<g transform="matrix(0.56 0 0 0.56 56.17 282.39)" id="jza8XsA9naRlMRKv29rei"  >
<path style="stroke: none; stroke-width: 1; stroke-dasharray: none; stroke-linecap: butt; stroke-dashoffset: 0; stroke-linejoin: miter; stroke-miterlimit: 4; fill: rgb(255,255,255); fill-rule: nonzero; opacity: 1;" vector-effect="non-scaling-stroke"  transform=" translate(-265.1, -507.16)" d="M 263.28371 522.86276 C 267.0421425927632 512.662239514972 266.81780493029805 501.4198832764797 262.65542999999997 491.37742 C 262.24222999999995 490.38277999999997 263.80756999999994 489.79391999999996 264.22027999999995 490.78736 C 268.53224813913863 501.24586801196835 268.74192315304975 512.9457466433817 264.80745999999994 523.55204 C 264.43175999999994 524.56271 262.91004999999996 523.8679500000001 263.2837099999999 522.86276 Z" stroke-linecap="round" />
</g>
<g transform="matrix(0.56 0 0 0.56 29.72 246)" id="93YKZcoOiffmLQ441l5SC"  >
<path style="stroke: none; stroke-width: 1; stroke-dasharray: none; stroke-linecap: butt; stroke-dashoffset: 0; stroke-linejoin: miter; stroke-miterlimit: 4; fill: rgb(255,255,255); fill-rule: nonzero; opacity: 1;" vector-effect="non-scaling-stroke"  transform=" translate(-218.17, -442.59)" d="M 213.1687 446.04755 C 217.31997577150807 445.049737074631 220.6912849572045 442.0313738089855 222.14024 438.01525 C 222.50295 437.00032 224.02434 437.6962 223.66399 438.70453 C 222.04318928350116 443.1323158468141 218.33309606544907 446.4688388830575 213.75876000000002 447.6124 C 213.32727612648839 447.7595138550426 212.85571780319586 447.5462020436458 212.68131000000002 447.12501 C 212.5208695674295 446.6929721370563 212.7382939354235 446.21231791858884 213.16870000000003 446.04755 Z" stroke-linecap="round" />
</g>
<g transform="matrix(0.56 0 0 0.56 84.14 274.92)" id="_jZkMb48SX50Xyqgs6Zo6"  >
<path style="stroke: none; stroke-width: 1; stroke-dasharray: none; stroke-linecap: butt; stroke-dashoffset: 0; stroke-linejoin: miter; stroke-miterlimit: 4; fill: rgb(230,230,230); fill-rule: nonzero; opacity: 1;" vector-effect="non-scaling-stroke"  transform=" translate(-314.73, -493.91)" d="M 338.03719 394.606 C 337.82873 395.24619 337.62027 395.88637 337.42019 396.538 C 334.662173104638 405.1593561403187 332.60912021148056 413.99052692438204 331.28129 422.94437000000005 C 331.16763000000003 423.635 331.06285 424.33662 330.96929 425.02907999999996 C 328.0002093057798 446.63500195901247 329.0682402615946 468.60438312249187 334.11909 489.8204199999999 C 336.13669797920994 498.2609306674382 338.7935383230697 506.5357097154252 342.06660999999997 514.5731199999998 C 346.58746 525.6728699999999 352.37237000000005 537.3481199999999 352.94550000000004 548.9515299999999 C 353.0188854940158 550.1614459528097 353.01725236671325 551.3747459878383 352.94061000000005 552.5844599999999 L 304.81661 591.4604599999999 C 304.66290000000004 591.4939299999999 304.51748000000003 591.5387499999999 304.36324 591.57265 L 302.51277000000005 593.2127099999999 C 302.31501000000003 592.8099699999999 302.11856000000006 592.3880199999999 301.92077000000006 591.9852899999998 C 301.80509000000006 591.7521499999998 301.7001200000001 591.5103499999999 301.58443000000005 591.2772099999999 C 301.5107100000001 591.1190399999998 301.43743000000006 590.9603699999999 301.3618900000001 590.8218499999998 C 301.33715000000007 590.7692899999998 301.31295000000006 590.7162999999998 301.29703000000006 590.6746699999998 C 301.22146000000004 590.5361499999998 301.1659700000001 590.3994699999997 301.0992800000001 590.2719399999997 Q 299.4423500000001 586.7385999999998 297.8293300000001 583.1696899999997 C 297.8204500000001 583.1586899999998 297.8204500000001 583.1586899999998 297.8223300000001 583.1390499999998 C 289.6749700000001 564.9892199999998 282.9712600000001 545.9997499999997 279.3629000000001 526.5964799999998 C 279.2545300000001 526.0126699999998 279.13675000000006 525.4182999999998 279.05036000000007 524.8167299999998 C 277.47241455798826 516.0616095341285 276.6126692699968 507.19216791383315 276.47971000000007 498.2969799999998 C 276.42258371296185 493.4260230255232 276.6120728627619 488.5552967814245 277.0474500000001 483.70349999999974 C 278.1965183217258 471.1693524905075 281.30996190588456 458.89394786827006 286.27364000000006 447.3273099999998 C 296.17208000000005 424.2707999999998 313.3342200000001 404.6366399999998 336.27736000000004 395.3019599999998 C 336.86436 395.0636 337.44122 394.83338 338.03719 394.606 Z" stroke-linecap="round" />
</g>
<g transform="matrix(0.56 0 0 0.56 87.17 274.41)" id="FGRHKNdXKpqqTPmk6qqv7"  >
<path style="stroke: none; stroke-width: 1; stroke-dasharray: none; stroke-linecap: butt; stroke-dashoffset: 0; stroke-linejoin: miter; stroke-miterlimit: 4; fill: rgb(255,255,255); fill-rule: nonzero; opacity: 1;" vector-effect="non-scaling-stroke"  transform=" translate(-320.11, -492.99)" d="M 338.42242 395.30418 C 318.3033784497034 419.4224778553005 306.2952283651538 449.26690952695947 304.10357999999997 480.59844000000004 C 303.51202610125824 487.3350245333915 303.9860362998826 494.1227508201735 305.50816 500.71173000000005 C 307.19830675428045 507.0823262446779 310.5635696809578 512.8841057849421 315.25428999999997 517.51425 C 319.54119999999995 521.9192499999999 324.43636 525.92869 327.57782999999995 531.29909 C 330.7477139669937 536.9074764398571 331.3733389611378 543.6021324611006 329.2974899999999 549.70074 C 326.9356699999999 557.28032 321.9912299999999 563.55923 316.94260999999995 569.53145 C 311.3370699999999 576.1624499999999 305.40960999999993 582.9611799999999 303.2205599999999 591.5769399999999 C 302.95532999999995 592.6208599999999 301.3510299999999 592.1482699999999 301.61585999999994 591.1059399999999 C 305.42441999999994 576.1159999999999 319.55420999999996 567.2015099999999 325.98019999999997 553.6001499999999 C 328.97867999999994 547.2535099999999 330.0827 539.9647799999999 326.85605999999996 533.4788599999998 C 324.03450999999995 527.8072099999998 318.99010999999996 523.6683399999998 314.61096999999995 519.2456799999999 C 309.9688229193295 514.7959153288658 306.4868520312909 509.27716099070005 304.46921999999995 503.17149999999987 C 302.6165397744914 496.6812868503732 301.8818256793255 489.92312305443556 302.29653999999994 483.18640999999985 C 302.98828275002427 468.00500723258784 306.06273495339866 453.02677436881345 311.4072699999999 438.8004099999999 C 317.41689977687133 422.53013022572793 326.16549022066687 407.40776851129647 337.2745299999999 394.0875999999999 C 337.96244999999993 393.26344999999986 339.1058399999999 394.48546999999985 338.42241999999993 395.30422999999985 Z" stroke-linecap="round" />
</g>
<g transform="matrix(0.56 0 0 0.56 73.48 255.04)" id="f7lKruDialuxWfJCj-UNW"  >
<path style="stroke: none; stroke-width: 1; stroke-dasharray: none; stroke-linecap: butt; stroke-dashoffset: 0; stroke-linejoin: miter; stroke-miterlimit: 4; fill: rgb(255,255,255); fill-rule: nonzero; opacity: 1;" vector-effect="non-scaling-stroke"  transform=" translate(-295.82, -458.63)" d="M 304.21545 470.46828 C 293.46147660253945 468.23491936296455 285.90890143297077 458.53959920222206 286.3748 447.56605 C 286.3980600526191 447.1158648707046 286.7736993656466 446.7649810911543 287.2244236317318 446.7724186074427 C 287.67514789781694 446.7798561237311 288.0390058062699 447.142942535897 288.0474 447.59365 C 287.59452113577896 457.81518409646935 294.6564833303094 466.84258357338143 304.68646 468.86358 C 305.74115 469.07739000000004 305.2641 470.68086 304.21546 470.46828 Z" stroke-linecap="round" />
</g>
<g transform="matrix(0.56 0 0 0.56 88.59 280.23)" id="hKd2rjvSy_ZwD5t3emnTg"  >
<path style="stroke: none; stroke-width: 1; stroke-dasharray: none; stroke-linecap: butt; stroke-dashoffset: 0; stroke-linejoin: miter; stroke-miterlimit: 4; fill: rgb(255,255,255); fill-rule: nonzero; opacity: 1;" vector-effect="non-scaling-stroke"  transform=" translate(-322.63, -503.32)" d="M 312.78649 515.567 C 321.92881114168495 509.68529731686203 328.518365913968 500.5738355548462 331.24119 490.04945 C 331.51011 489.00651 333.11449 489.47878 332.84589 490.52045 C 329.99201040719606 501.4670812607398 323.1152934571222 510.93501515829604 313.58813 517.03473 C 312.67965 517.6155 311.88295 516.14459 312.78648999999996 515.56698 Z" stroke-linecap="round" />
</g>
<g transform="matrix(0.56 0 0 0.56 89.97 236)" id="Sp8uH6Pc4bXciaA0ovLcl"  >
<path style="stroke: none; stroke-width: 1; stroke-dasharray: none; stroke-linecap: butt; stroke-dashoffset: 0; stroke-linejoin: miter; stroke-miterlimit: 4; fill: rgb(255,255,255); fill-rule: nonzero; opacity: 1;" vector-effect="non-scaling-stroke"  transform=" translate(-325.08, -424.85)" d="M 319.02052 424.06166 C 322.9358325418734 425.7643160099416 327.444895547775 425.3840849290074 331.01979 423.04981000000004 C 331.92046 422.45781000000005 332.71623 423.92942000000005 331.82143 424.51756000000006 C 327.86147736825285 427.0770574501167 322.89036310844165 427.5073505849209 318.54951 425.66636000000005 C 318.11641800482283 425.52403850060904 317.86833005413945 425.0698079978371 317.98266 424.62850000000003 C 318.11467324486745 424.1869451587063 318.57766489412023 423.93407657675647 319.02052000000003 424.06166 Z" stroke-linecap="round" />
</g>
<g transform="matrix(0.56 0 0 0.56 237.7 73.73)" id="elp6jI-YudyxjP81MaZq_"  >
<path style="stroke: none; stroke-width: 1; stroke-dasharray: none; stroke-linecap: butt; stroke-dashoffset: 0; stroke-linejoin: miter; stroke-miterlimit: 4; fill: rgb(255,101,132); fill-rule: nonzero; opacity: 1;" vector-effect="non-scaling-stroke"  transform=" translate(-52.99, -52.99)" d="M 0 52.98539 C 0 23.72237 23.72237 0 52.98539 0 C 82.24841 0 105.97078 23.72237 105.97078 52.98539 C 105.97078 82.24841 82.24841 105.97078 52.98539 105.97078 C 23.72237 105.97078 0 82.24841 0 52.98539 z" stroke-linecap="round" />
</g>
<g transform="matrix(0.56 0 0 0.56 280.65 64.33)" id="Hwe0pc2qvvu7d5KDtLsw9"  >
<path style="stroke: none; stroke-width: 1; stroke-dasharray: none; stroke-linecap: butt; stroke-dashoffset: 0; stroke-linejoin: miter; stroke-miterlimit: 4; fill: rgb(230,230,230); fill-rule: nonzero; opacity: 1;" vector-effect="non-scaling-stroke"  transform=" translate(-663.4, -120.24)" d="M 749.43232 134.14486 C 744.6581846801903 129.1012019511828 739.6176489213705 124.3165551656503 734.3323199999999 119.81142999999994 C 724.0101599999999 111.05811 712.58264 103.61504 699.84476 98.92636 C 695.0491189403521 97.15533552294286 690.0938833358174 95.85084603699036 685.04784 95.03099999999999 C 684.44171 94.933 683.8444999999999 94.83492000000001 683.23831 94.75467 C 683.1938616011078 94.75020997965848 683.1490783988921 94.75020997965848 683.1046299999999 94.75467 C 683.0113553888995 94.72828620088546 682.915887037473 94.71038672173006 682.8193899999999 94.70119000000001 C 681.5803899999999 94.54075000000002 680.3413199999999 94.41594 679.0933899999999 94.32683000000002 C 672.3727491508081 93.88005086821262 665.623586186845 94.48760209900409 659.0907799999999 96.12744000000004 C 655.3004078717004 97.08374443723797 651.6017101887678 98.37230463425169 648.0376299999999 99.97816000000003 C 644.4671745065572 101.72620477546005 641.005309405445 103.68783382812113 637.67086 105.85238 C 635.8800810138987 106.94007030489604 634.0355591803236 107.93670745197694 632.14433 108.83849000000001 C 626.6224898766427 111.45478631471909 620.7772913496162 113.32526638834281 614.76239 114.40076000000002 C 610.7005206255241 115.12944474654137 606.5872521647536 115.53480254142767 602.46128 115.61302000000002 C 598.87796 115.68435000000001 595.49959 115.8091 592.10343 117.10162000000001 C 584.7538416694771 119.86313503772455 579.1440685262901 125.93902083259539 576.97671 133.48521000000002 C 576.8037048892579 134.16358108513765 577.0928218632961 134.87552808613452 577.6898100000001 135.24121000000002 C 578.6079000000001 135.90088000000003 579.4992800000001 136.64961000000002 580.4709100000001 137.23795 C 581.3282957478388 137.62925858111387 582.243407512538 137.8790976214205 583.1806900000001 137.97776000000002 Q 585.4805100000001 138.45917000000003 587.7891800000001 138.91376000000002 Q 596.2795500000001 140.59841000000003 604.8413100000001 141.89987000000002 Q 622.0628100000001 144.50717000000003 639.4803900000002 145.57236000000003 C 639.5512584618367 145.58273055805776 639.6227027145733 145.58868869880578 639.6943100000002 145.59020000000004 C 652.8124815325106 146.38195565669773 665.9622977129961 146.50988232513296 679.0933900000001 145.9734899999999 C 681.0811500000002 145.89324000000002 683.0600500000003 145.79520000000002 685.0478100000003 145.67932000000002 Q 697.4691900000003 144.98401 709.8282100000002 143.4865 Q 721.2601600000003 142.09597 732.6030000000003 140.03686000000002 Q 740.7056600000003 138.56611 748.7460000000003 136.75658 C 749.2754394785736 136.59993190799116 749.684561624283 136.17805551252908 749.8248879782893 135.64405804008823 C 749.9652143322957 135.11006056764734 749.8163497079356 134.54155379831906 749.43232 134.14486 Z" stroke-linecap="round" />
</g>
<g transform="matrix(0.56 0 0 0.56 218.58 104.17)" id="PO3FMp1zbX2Kb9IeTP2Z4"  >
<path style="stroke: none; stroke-width: 1; stroke-dasharray: none; stroke-linecap: butt; stroke-dashoffset: 0; stroke-linejoin: miter; stroke-miterlimit: 4; fill: rgb(230,230,230); fill-rule: nonzero; opacity: 1;" vector-effect="non-scaling-stroke"  transform=" translate(-553.27, -190.93)" d="M 639.30213 204.79577 C 631.6312612256997 196.58998248745687 623.1797305586755 189.15048870786296 614.0671299999999 182.58255999999997 C 611.04533 180.46107 607.93442 178.46438 604.7343900000001 176.637 C 600.8110361685293 174.37230755922658 596.7367265737875 172.37983630221336 592.54024 170.67365999999998 C 591.6043000000001 170.29037000000002 590.65944 169.92493000000002 589.7145800000001 169.57728 C 584.3466170477437 167.58907606752345 578.7784252999293 166.19030614459066 573.1081300000001 165.40562 C 573.06357 165.3967 573.0190200000001 165.40562 572.97446 165.3967 C 572.88529 165.37890000000002 572.78725 165.36106 572.69813 165.34321 C 569.9494841971649 164.98676923974662 567.1798417111565 164.81701696912347 564.40824 164.83512 C 562.42047 164.83512 560.4237899999999 164.94212 558.44489 165.13821 C 555.2477402433981 165.45316880069035 552.0778795216798 166.00133512752075 548.96063 166.77832999999998 C 547.4185100000001 167.16167 545.88536 167.60733 544.37892 168.1154 C 542.1818372836912 168.83850290478838 540.0246364467251 169.67758050050668 537.9164 170.6291 C 537.88077 170.64695 537.8539999999999 170.65587 537.8184 170.67365999999998 C 534.2794514498672 172.40497860150512 530.8500949689353 174.3518616723614 527.5496699999999 176.50333 C 527.47834 176.54788999999997 527.39815 176.59244999999999 527.32682 176.63699999999997 C 523.5780168822133 178.87957903828791 519.6119704526999 180.73717876569705 515.48925 182.18142999999998 C 511.950383816727 183.41900853551988 508.32037389367946 184.37865918315086 504.63225 185.05164999999997 C 500.57083847974604 185.7822678282331 496.45719496992234 186.18470132581152 492.33119 186.25504999999995 C 488.74782 186.32636999999994 485.36951 186.45111999999995 481.98226999999997 187.75255999999996 C 474.6304214815425 190.51348443952926 469.0176456185503 196.58903947871943 466.84662 204.13616 C 466.6771437660468 204.81428642057872 466.96543218482196 205.5241931144072 467.55971999999997 205.89215999999996 C 468.47781 206.55176999999995 469.37811999999997 207.29162999999997 470.34081999999995 207.87996999999996 C 471.1971374724325 208.27423151044505 472.11274686246816 208.5242054873371 473.05060999999995 208.61977999999996 C 474.58380999999997 208.94071999999997 476.11695999999995 209.26159999999996 477.65903 209.56463999999997 Q 486.1495 211.24936999999997 494.72008999999997 212.54187999999996 Q 506.47301 214.32019999999997 518.32391 215.38538999999997 Q 523.9395499999999 215.90685999999997 529.56422 216.24113999999997 Q 543.99122 217.11013999999997 558.44495 216.91853999999998 Q 561.4266799999999 216.87847 564.4082999999999 216.78486999999998 Q 582.1112099999999 216.26339 599.7070399999999 214.12850999999998 C 612.7823866765743 212.54660077749188 625.768770354312 210.3003899417761 638.6158199999999 207.39858999999998 C 639.1443688592348 207.24371128266233 639.5532989357453 206.82348940097657 639.6937268001851 206.2909189093311 C 639.834154664625 205.75834841768562 639.6855929249333 205.19112743180602 639.30213 204.79577 Z" stroke-linecap="round" />
</g>
<g transform="matrix(0.56 0 0 0.56 192.63 215.75)" id="F8eN0edpRbHgdMyPWtEjs"  >
<path style="stroke: none; stroke-width: 1; stroke-dasharray: none; stroke-linecap: butt; stroke-dashoffset: 0; stroke-linejoin: miter; stroke-miterlimit: 4; fill: rgb(204,204,204); fill-rule: nonzero; opacity: 1;" vector-effect="non-scaling-stroke"  transform=" translate(-507.23, -388.91)" d="M 507.23172 62.59455 L 553.91061 707.65072 L 460.55283 715.937 L 460.55283 70.80149 C 471.67732 62.11189 487.6462 60.75238 507.23172 62.59455 Z" stroke-linecap="round" />
</g>
<g transform="matrix(0.56 0 0 0.56 322.49 215.75)" id="lf8-Oc8o-wyuQyki6Do_1"  >
<path style="stroke: none; stroke-width: 1; stroke-dasharray: none; stroke-linecap: butt; stroke-dashoffset: 0; stroke-linejoin: miter; stroke-miterlimit: 4; fill: rgb(204,204,204); fill-rule: nonzero; opacity: 1;" vector-effect="non-scaling-stroke"  transform=" translate(-737.65, -388.91)" d="M 737.64666 62.59455 L 690.96777 707.65072 L 784.32555 715.93697 L 784.32555 70.80149 C 773.20106 62.11189 757.23217 60.75238 737.64666 62.59455 Z" stroke-linecap="round" />
</g>
<g transform="matrix(0.56 0 0 0.56 257.28 222.47)" id="YUK4T3N2J3r9brbTbFU8J"  >
<path style="stroke: none; stroke-width: 1; stroke-dasharray: none; stroke-linecap: butt; stroke-dashoffset: 0; stroke-linejoin: miter; stroke-miterlimit: 4; fill: rgb(204,204,204); fill-rule: nonzero; opacity: 1;" vector-effect="non-scaling-stroke"  transform=" translate(-621.94, -400.84)" d="M 786.5221 71.083 C 783.6251 63.98023 777.46569 59.07671 770.34351 59.07671 L 473.5402 59.07671 C 463.63696000000004 59.07671 455.58776 68.57861 455.58776 80.26923 L 455.58776 721.40237 C 455.50132184183957 727.3336716042223 457.71891987515147 733.0672733823773 461.77395 737.3967700000001 C 463.8956147747947 739.6250182918986 466.581945234583 741.2360555490394 469.54682 742.05829 C 470.84735147527397 742.417928201828 472.1908633857674 742.5984792893491 473.5402 742.59495 L 770.34351 742.59495 C 771.6928600294028 742.5984833020136 773.0363856938372 742.4179321746402 774.33693 742.05829 C 782.3236800000001 739.9116300000001 788.29593 731.47253 788.29593 721.40237 L 788.29593 80.26926 C 788.3042184340666 77.12128089302827 787.7018167054999 74.0015800744256 786.5221 71.08300000000001 Z M 782.3415200000001 721.40234 C 782.3415200000001 729.21011 776.9576000000001 735.56575 770.34352 735.56575 L 473.5402 735.56575 C 468.0582 735.56575 463.41411000000005 731.1989 461.99679000000003 725.25359 C 461.69394219581375 723.9922535794059 461.5413455295084 722.6995237426042 461.54218000000003 721.40234 L 461.54218000000003 80.26926 C 461.54218000000003 72.46149 466.92618000000004 66.11638 473.54018 66.11638 L 770.34351 66.11638 C 771.5608358119152 66.11541785860568 772.7684644692978 66.3328168933367 773.90903 66.75825 C 778.78492 68.54711 782.3415200000001 73.92415 782.3415200000001 80.26925 Z" stroke-linecap="round" />
</g>
<g transform="matrix(0.56 0 0 0.56 257.28 141.37)" id="uC7r7zHYXQJNQukODA8vf"  >
<path style="stroke: none; stroke-width: 1; stroke-dasharray: none; stroke-linecap: butt; stroke-dashoffset: 0; stroke-linejoin: miter; stroke-miterlimit: 4; fill: rgb(204,204,204); fill-rule: nonzero; opacity: 1;" vector-effect="non-scaling-stroke"  transform=" translate(-163.38, -2.98)" d="M 0 5.95901 L 0 0 L 326.75223 0 L 326.75223 5.95901 z" stroke-linecap="round" />
</g>
<g transform="matrix(0.56 0 0 0.56 257.28 72.05)" id="QgbsN4-oi4uXzoLjQxmmd"  >
<path style="stroke: none; stroke-width: 1; stroke-dasharray: none; stroke-linecap: butt; stroke-dashoffset: 0; stroke-linejoin: miter; stroke-miterlimit: 4; fill: rgb(204,204,204); fill-rule: nonzero; opacity: 1;" vector-effect="non-scaling-stroke"  transform=" translate(-163.38, -2.98)" d="M 0 5.95901 L 0 0 L 326.75223 0 L 326.75223 5.95901 z" stroke-linecap="round" />
</g>
<g transform="matrix(0.56 0 0 0.56 257.28 197.35)" id="2vqurOpJwhZsRbX0HudMI"  >
<path style="stroke: none; stroke-width: 1; stroke-dasharray: none; stroke-linecap: butt; stroke-dashoffset: 0; stroke-linejoin: miter; stroke-miterlimit: 4; fill: rgb(204,204,204); fill-rule: nonzero; opacity: 1;" vector-effect="non-scaling-stroke"  transform=" translate(-163.38, -2.98)" d="M 0 5.95901 L 0 0 L 326.75223 0 L 326.75223 5.95901 z" stroke-linecap="round" />
</g>
<g transform="matrix(0.56 0 0 0.56 223.28 137.3)" id="GFJJl1YARELEs2xV2qJYr"  >
<path style="stroke: none; stroke-width: 1; stroke-dasharray: none; stroke-linecap: butt; stroke-dashoffset: 0; stroke-linejoin: miter; stroke-miterlimit: 4; fill: rgb(204,204,204); fill-rule: nonzero; opacity: 1;" vector-effect="non-scaling-stroke"  transform=" translate(-2.98, -187.97)" d="M 0 375.9441 L 0 0 L 5.95901 0 L 5.95901 375.9441 z" stroke-linecap="round" />
</g>
<g transform="matrix(0.56 0 0 0.56 291.27 137.3)" id="OI9Bg1CVcOzzgEJzdkCTw"  >
<path style="stroke: none; stroke-width: 1; stroke-dasharray: none; stroke-linecap: butt; stroke-dashoffset: 0; stroke-linejoin: miter; stroke-miterlimit: 4; fill: rgb(204,204,204); fill-rule: nonzero; opacity: 1;" vector-effect="non-scaling-stroke"  transform=" translate(-2.98, -187.97)" d="M 0 375.9441 L 0 0 L 5.95901 0 L 5.95901 375.9441 z" stroke-linecap="round" />
</g>
<g transform="matrix(0.56 0 0 0.56 260.08 409.2)" id="XCc2Mj1FvRgW9YlDuBFJ6"  >
<path style="stroke: none; stroke-width: 1; stroke-dasharray: none; stroke-linecap: butt; stroke-dashoffset: 0; stroke-linejoin: miter; stroke-miterlimit: 4; fill: rgb(204,204,204); fill-rule: nonzero; opacity: 1;" vector-effect="non-scaling-stroke"  transform=" translate(-626.91, -732.17)" d="M 822.56066 705.353 L 431.25305 705.353 C 416.4520013299466 705.3704624188566 404.4577368987086 717.3647313234349 404.44028 732.1657799999999 C 404.4367391990845 735.5841722919558 405.09354716787897 738.9710662000367 406.37460999999996 742.1403399999999 C 410.44715380611495 752.3110134567085 420.2973129545813 758.9813038441662 431.25305 758.9874199999999 L 822.56066 758.9874199999999 C 832.0855001047674 758.984233058038 840.8937961320556 753.9286406407798 845.70094 745.7058699999999 C 846.3736948149316 744.5638248376362 846.9577713430232 743.3718116595296 847.4480199999999 742.1403399999999 C 848.729082832121 738.9710662000367 849.3858908009154 735.5841722919558 849.38235 732.1657799999999 C 849.3606889717424 717.3629942588844 837.3634521209353 705.3697428161682 822.56066 705.353 Z" stroke-linecap="round" />
</g>
<g transform="matrix(0.56 0 0 0.56 257.84 241)" id="TllBzpWzYPWOXKt8FR6uX"  >
<path style="stroke: none; stroke-width: 1; stroke-dasharray: none; stroke-linecap: butt; stroke-dashoffset: 0; stroke-linejoin: miter; stroke-miterlimit: 4; fill: rgb(204,204,204); fill-rule: nonzero; opacity: 1;" vector-effect="non-scaling-stroke"  transform=" translate(-162.38, -9.93)" d="M 0 19.86336 L 0 0 L 324.76589 0 L 324.76589 19.86336 z" stroke-linecap="round" />
</g>
<g transform="matrix(0.56 0 0 0.56 257.84 235.12)" id="u2JFODh7_Yq-CZp8MO2Kq"  >
<path style="stroke: none; stroke-width: 1; stroke-dasharray: none; stroke-linecap: butt; stroke-dashoffset: 0; stroke-linejoin: miter; stroke-miterlimit: 4; fill: rgb(204,204,204); fill-rule: nonzero; opacity: 1;" vector-effect="non-scaling-stroke"  transform=" translate(-425.17, -364.22)" d="M 422.19269 358.75489 L 428.15169000000003 358.75489 C 431.0491377168587 358.75489 433.8279135186539 359.9058966238977 435.8767184473781 361.95470155262194 C 437.9255233761023 364.00350648134616 439.07653000000005 366.78228228314134 439.07653000000005 369.67973 L 439.07653000000005 369.67973 L 411.26783000000006 369.67973 L 411.26783000000006 369.67973 C 411.2678299999952 366.7822788179176 412.41883936931566 364.00349998518783 414.46764862368656 361.9546944815456 C 416.51645787805745 359.90588897790326 419.2952388179225 358.75488469566386 422.19269 358.75489 Z" stroke-linecap="round" />
</g>
<g transform="matrix(0.56 0 0 0.56 261.07 232.29)" id="uu1yAF-i9BEOBYcXsBuA8"  >
<path style="stroke: none; stroke-width: 1; stroke-dasharray: none; stroke-linecap: butt; stroke-dashoffset: 0; stroke-linejoin: miter; stroke-miterlimit: 4; fill: rgb(255,184,184); fill-rule: nonzero; opacity: 1;" vector-effect="non-scaling-stroke"  transform=" translate(-61.55, -61.55)" d="M 0 61.54786 C 0 27.55592 27.55592 0 61.54786 0 C 95.5398 0 123.09572 27.55592 123.09572 61.54786 C 123.09572 95.5398 95.5398 123.09572 61.54786 123.09572 C 27.55592 123.09572 0 95.5398 0 61.54786 z" stroke-linecap="round" />
</g>
<g transform="matrix(0.56 0 0 0.56 258.72 209.62)" id="0myXVL8kpyxaznspy6xCk"  >
<path style="stroke: none; stroke-width: 1; stroke-dasharray: none; stroke-linecap: butt; stroke-dashoffset: 0; stroke-linejoin: miter; stroke-miterlimit: 4; fill: rgb(47,46,65); fill-rule: nonzero; opacity: 1;" vector-effect="non-scaling-stroke"  transform=" translate(-624.5, -378.03)" d="M 560.00644 359.05263 C 560.4717899999999 351.98471 565.14591 344.75212000000005 579.99625 340.97274000000004 C 579.99625 340.97274000000004 605.4820500000001 308.38309000000004 640.11432 325.47354000000007 C 640.11432 325.47354000000007 656.90389 322.58501000000007 669.35375 340.00482000000005 C 669.35375 340.00482000000005 681.6971 332.72494000000006 686.90485 345.62854000000004 C 686.90485 345.62854000000004 701.3815500000001 371.94888000000003 696.0518500000001 398.79564000000005 C 690.72215 425.64240000000007 687.9941600000001 428.99279000000007 687.9941600000001 428.99279000000007 C 687.9941600000001 428.99279000000007 694.7876200000001 373.4607900000001 655.65916 377.3114300000001 C 616.5307 381.1620700000001 585.0285100000001 367.4018700000001 576.1674800000001 397.5294300000001 C 568.8096200000001 422.5461300000001 569.73648 435.5386400000001 569.73648 435.5386400000001 C 569.73648 435.5386400000001 545.13148 410.5823300000001 553.49726 390.9310800000001 C 557.77606 380.88021 559.28879 369.9527 560.00644 359.05263 Z" stroke-linecap="round" />
</g>
<g transform="matrix(0.56 0 0 0.56 262.67 351.32)" id="7WBfGVlaVKiCmOXraFFXH"  >
<path style="stroke: none; stroke-width: 1; stroke-dasharray: none; stroke-linecap: butt; stroke-dashoffset: 0; stroke-linejoin: miter; stroke-miterlimit: 4; fill: rgb(2,170,176); fill-rule: nonzero; opacity: 1;" vector-effect="non-scaling-stroke"  transform=" translate(-631.51, -629.46)" d="M 461.29216 754.61968 L 801.73027 754.61968 C 799.45503 728.65116 797.9678700000001 629.38459 797.9678700000001 622.85113 C 797.9678700000001 594.03536 774.3890200000001 562.5884100000001 774.3890200000001 562.5884100000001 L 765.9489100000001 557.9234100000001 L 695.4665100000001 535.9334100000001 L 677.2262900000001 512.24012 C 673.3541646231656 507.1958992199058 667.3404826402943 504.2596524040197 660.98162 504.30848000000003 L 603.36273 504.74069000000003 C 598.2923133948492 504.779738843356 593.4192311481821 506.71084288934554 589.69842 510.15558000000004 L 554.01877 543.255 L 501.68761 568.24475 L 501.59861 568.15585 L 501.05204000000003 568.56253 L 493.28565000000003 574.15539 L 488.29025 577.76539 C 488.29025 577.76539 475.18525 593.48887 464.7114 640.64657 C 463.13527 647.73925 462.02934 739.55712 461.29216 754.61968 Z" stroke-linecap="round" />
</g>
<g transform="matrix(0.56 0 0 0.56 258.68 421.1)" id="cz0ra1i7hFEL6U254SZxr"  >
<path style="stroke: none; stroke-width: 1; stroke-dasharray: none; stroke-linecap: butt; stroke-dashoffset: 0; stroke-linejoin: miter; stroke-miterlimit: 4; fill: rgb(204,204,204); fill-rule: nonzero; opacity: 1;" vector-effect="non-scaling-stroke"  transform=" translate(-624.42, -753.28)" d="M 880.52723 742.14034 C 879.70712 742.8890700000001 878.87814 743.6289300000001 878.04916 744.36879 Q 873.3426400000001 748.5537899999999 868.5024500000001 752.59623 Q 861.1886900000001 758.69323 853.5718 764.42488 L 395.2769 764.42488 Q 381.27772 753.9155000000001 368.31261 742.14034 Z" stroke-linecap="round" />
</g>
<g transform="matrix(0.56 0 0 0.56 260.86 413.06)" id="do2E7hBuc9KIL_hlQCpaZ"  >
<path style="stroke: none; stroke-width: 1; stroke-dasharray: none; stroke-linecap: butt; stroke-dashoffset: 0; stroke-linejoin: miter; stroke-miterlimit: 4; fill: rgb(47,46,65); fill-rule: nonzero; opacity: 1;" vector-effect="non-scaling-stroke"  transform=" translate(-430.54, -679.94)" d="M 514.774 688.412 L 346.303 688.412 L 349.868 671.476 L 511.20799999999997 671.476 z" stroke-linecap="round" />
</g>
<g transform="matrix(0.56 0 0 0.56 378.81 397.56)" id="SSLThcMuavSHPL1g88Upd"  >
<path style="stroke: none; stroke-width: 1; stroke-dasharray: none; stroke-linecap: butt; stroke-dashoffset: 0; stroke-linejoin: miter; stroke-miterlimit: 4; fill: rgb(63,61,86); fill-rule: nonzero; opacity: 1;" vector-effect="non-scaling-stroke"  transform=" translate(-837.73, -710.05)" d="M 864.95476 674.39534 L 821.11662 674.39534 C 819.1136570989216 674.3894697197384 817.2108738841041 675.2706910311356 815.91985 676.80208 C 815.3088869006915 676.6840970374393 814.6881003653713 676.624399070135 814.06585 676.6237900000001 C 810.3485932408691 676.6201445692354 806.9121456262418 678.6011840576508 805.0524641068672 681.8198166475819 C 803.1927825874926 685.0384492375129 803.1927825874926 689.0050207624873 805.0524641068672 692.2236533524184 C 806.9121456262418 695.4422859423494 810.3485932408691 697.4233254307647 814.06585 697.4196800000001 C 815.6357531135218 697.4194026910113 817.1847417310458 697.0595987062571 818.59403 696.3678600000001 L 819.32497 705.3530000000001 L 822.23088 740.86567 C 822.3689028828154 741.3091305226527 822.5541833340864 741.7364741086866 822.7835299999999 742.14034 C 823.979970134995 744.3371694527904 826.2810249491948 745.7048107216141 828.78253 745.70587 L 857.2889 745.70587 C 859.7921315361529 745.7027289143651 862.0948534682307 744.3361265300948 863.29681 742.14034 C 863.5195964745374 741.7343967930316 863.7017246774329 741.3074323871962 863.84054 740.86567 L 871.5064500000001 683.26459 C 872.1458003593458 681.1856199232424 871.7604930668122 678.926592410739 870.4681471484226 677.1770989156751 C 869.1758012300332 675.427605420611 867.1298198753433 674.3953131615156 864.95476 674.39534 Z M 814.0658199999999 694.45142 C 809.9658840216155 694.4466634513033 806.644749563498 691.1216737375431 806.644749563498 687.021735 C 806.644749563498 682.9217962624568 809.9658840216155 679.5968065486967 814.0658199999999 679.59205 C 814.19949 679.59205 814.3242999999999 679.62774 814.4580299999999 679.63666 C 814.1646663894006 680.8333634603576 814.201647952865 682.0872562037147 814.5650299999999 683.26459 L 817.7026599999998 693.462 C 816.5977507564056 694.1041409042884 815.3437604769362 694.4452950552306 814.06582 694.45142 Z" stroke-linecap="round" />
</g>
<g transform="matrix(0.56 0 0 0.56 260.24 328.27)" id="6L2ZyWrklWMfz5rogxJ9w"  >
<path style="stroke: none; stroke-width: 1; stroke-dasharray: none; stroke-linecap: butt; stroke-dashoffset: 0; stroke-linejoin: miter; stroke-miterlimit: 4; fill: rgb(63,61,86); fill-rule: nonzero; opacity: 1;" vector-effect="non-scaling-stroke"  transform=" translate(-627.19, -588.56)" d="M 765.94008 485.93053 L 488.4352 485.93053 C 483.4712153756106 485.93842558501564 479.44906870021276 489.9605454283932 479.44114 494.92453 L 479.44114 682.186 C 479.44591404308756 687.1512936443339 483.4699063239285 691.1752590808425 488.4352 691.1800000000001 L 765.94008 691.1800000000001 C 770.9053736760715 691.1752590808425 774.9293659569124 687.1512936443339 774.93414 682.186 L 774.93414 494.92454 C 774.9262168039844 489.9605515231474 770.9040685208228 485.93842560001167 765.94008 485.93053 Z" stroke-linecap="round" />
</g>
<g transform="matrix(0.56 0 0 0.56 259.56 384.87)" id="h7lDL9xA1JkPLvmkzDFfW"  >
<path style="stroke: none; stroke-width: 1; stroke-dasharray: none; stroke-linecap: butt; stroke-dashoffset: 0; stroke-linejoin: miter; stroke-miterlimit: 4; fill: rgb(47,46,65); fill-rule: nonzero; opacity: 1;" vector-effect="non-scaling-stroke"  transform=" translate(-625.98, -688.99)" d="M 658.43948 635.97676 L 593.52014 635.97676 C 591.6077451486525 635.9796519723952 590.0595460502225 637.531844043611 590.0615799999999 639.44424 L 590.0615799999999 741.99769 L 661.907 741.99769 L 661.907 639.44424 C 661.9074805042437 638.5244529736028 661.5423065802364 637.6422005940053 660.8919150965504 636.9918166129897 C 660.2415236128645 636.341432631974 659.3592670207931 635.9762688853797 658.43948 635.97676 Z M 626.19822 694.2463700000001 C 621.9726565461579 694.2266811840657 618.5520263767664 690.806073325334 618.5323099999999 686.5805100000001 L 618.5323099999999 674.75186 C 618.5371416273334 670.521527452345 621.9678596931511 667.0947255054086 626.1981949999999 667.0947255054086 C 630.4285303068488 667.0947255054086 633.8592483726665 670.521527452345 633.86408 674.75186 L 633.86408 686.58051 C 633.8444289433855 690.8060810715632 630.4237910715632 694.2267189433855 626.19822 694.24637 Z" stroke-linecap="round" />
</g>
<g transform="matrix(0.56 0 0 0.56 259.56 416.23)" id="5JvsKqub4gyTjQOrXGnos"  >
<path style="stroke: none; stroke-width: 1; stroke-dasharray: none; stroke-linecap: butt; stroke-dashoffset: 0; stroke-linejoin: miter; stroke-miterlimit: 4; fill: rgb(63,61,86); fill-rule: nonzero; opacity: 1;" vector-effect="non-scaling-stroke"  transform=" translate(-625.98, -744.63)" d="M 589.83873 738.71741 L 589.83873 748.61178 C 589.8409250688767 749.6791662081771 590.705683724248 750.5438980401775 591.7730700000001 750.5460599999999 L 660.1955300000001 750.5460599999999 C 661.2615931543307 750.5407428777501 662.1244928777502 749.6778431543306 662.12981 748.61178 L 662.12981 738.71741 Z" stroke-linecap="round" />
</g>
<g transform="matrix(0.56 0 0 0.56 335.11 377.46)" id="TGXSoeuSvQZNo0mUs33XZ"  >
<path style="stroke: none; stroke-width: 1; stroke-dasharray: none; stroke-linecap: butt; stroke-dashoffset: 0; stroke-linejoin: miter; stroke-miterlimit: 4; fill: rgb(47,46,65); fill-rule: nonzero; opacity: 1;" vector-effect="non-scaling-stroke"  transform=" translate(-4.38, -4.38)" d="M 0 4.38092 C 0 1.9613999999999998 1.9614 0 4.38092 0 C 6.80044 0 8.76184 1.9614 8.76184 4.38092 C 8.76184 6.80044 6.800439999999999 8.76184 4.38092 8.76184 C 1.9613999999999998 8.76184 0 6.800439999999999 0 4.38092 z" stroke-linecap="round" />
</g>
<g transform="matrix(0.56 0 0 0.56 201.78 376.97)" id="N6YZcHNU7YD-5TBGCJ5gL"  >
<path style="stroke: none; stroke-width: 1; stroke-dasharray: none; stroke-linecap: butt; stroke-dashoffset: 0; stroke-linejoin: miter; stroke-miterlimit: 4; fill: rgb(47,46,65); fill-rule: nonzero; opacity: 1;" vector-effect="non-scaling-stroke"  transform=" translate(-523.47, -674.97)" d="M 523.46649 669.49274 C 523.0598589842162 669.4927081710205 522.6698726490612 669.6542241937265 522.3823364110185 669.941751054772 C 522.094800172976 670.2292779158175 521.933271432097 670.6192589833945 521.93329 671.02589 L 521.93329 678.91465 C 521.9354486115009 679.7598704492091 522.6212417943527 680.4439144189337 523.466465 680.4439144189337 C 524.3116882056473 680.4439144189337 524.9974813884992 679.7598704492091 524.99964 678.91465 L 524.99964 671.02589 C 524.9996797895064 670.61926114192 524.8381647272494 670.2292753214529 524.5506347028983 669.9417452971018 C 524.2631046785472 669.6542152727507 523.87311885808 669.4927002104936 523.46649 669.49274 Z" stroke-linecap="round" />
</g>
<g transform="matrix(0.56 0 0 0.56 206.47 376.97)" id="qGwwbiuSK9Kzo5ammHyHb"  >
<path style="stroke: none; stroke-width: 1; stroke-dasharray: none; stroke-linecap: butt; stroke-dashoffset: 0; stroke-linejoin: miter; stroke-miterlimit: 4; fill: rgb(47,46,65); fill-rule: nonzero; opacity: 1;" vector-effect="non-scaling-stroke"  transform=" translate(-531.79, -674.97)" d="M 531.792 669.49274 C 531.3853768339167 669.4927187806805 530.9954018033956 669.6542398063623 530.707875804879 669.941765804879 C 530.4203498063623 670.2292918033955 530.2588287806806 670.6192668339166 530.25885 671.02589 L 530.25885 678.91465 C 530.25885 679.7614019327457 530.9452780672544 680.4478300000001 531.7920300000001 680.4478300000001 C 532.6387819327457 680.4478300000001 533.3252100000001 679.7614019327457 533.3252100000001 678.91465 L 533.3252100000001 671.02589 C 533.3252285681987 670.619257250632 533.1636984546517 670.2292746673457 532.8761600536725 669.9417475187743 C 532.5886216526933 669.6542203702029 532.1986327483299 669.4927055184938 531.792 669.49274 Z" stroke-linecap="round" />
</g>
<g transform="matrix(0.56 0 0 0.56 211.17 376.97)" id="q51zhW5q6RIFx9OAXKgg8"  >
<path style="stroke: none; stroke-width: 1; stroke-dasharray: none; stroke-linecap: butt; stroke-dashoffset: 0; stroke-linejoin: miter; stroke-miterlimit: 4; fill: rgb(47,46,65); fill-rule: nonzero; opacity: 1;" vector-effect="non-scaling-stroke"  transform=" translate(-540.12, -674.97)" d="M 540.11749 669.49274 C 539.7108589842162 669.4927081710205 539.3208726490611 669.6542241937265 539.0333364110185 669.941751054772 C 538.7458001729759 670.2292779158175 538.5842714320969 670.6192589833945 538.58429 671.02589 L 538.58429 678.91465 C 538.5864486114885 679.7598704492178 539.272241794344 680.443914418956 540.117465 680.443914418956 C 540.962688205656 680.443914418956 541.6484813885115 679.7598704492178 541.6506400000001 678.91465 L 541.6506400000001 671.02589 C 541.6506797895065 670.61926114192 541.4891647272494 670.2292753214529 541.2016347028982 669.9417452971018 C 540.9141046785471 669.6542152727507 540.52411885808 669.4927002104936 540.11749 669.49274 Z" stroke-linecap="round" />
</g>
<g transform="matrix(0.56 0 0 0.56 215.86 376.97)" id="Epa-duD_SJlDwZZ_-7LCl"  >
<path style="stroke: none; stroke-width: 1; stroke-dasharray: none; stroke-linecap: butt; stroke-dashoffset: 0; stroke-linejoin: miter; stroke-miterlimit: 4; fill: rgb(47,46,65); fill-rule: nonzero; opacity: 1;" vector-effect="non-scaling-stroke"  transform=" translate(-548.44, -674.97)" d="M 548.443 669.49274 C 548.0363768339166 669.4927187806805 547.6464018033955 669.6542398063623 547.358875804879 669.941765804879 C 547.0713498063623 670.2292918033955 546.9098287806805 670.6192668339166 546.90985 671.02589 L 546.90985 678.91465 C 546.9120086114885 679.7598704492178 547.597801794344 680.443914418956 548.443025 680.443914418956 C 549.288248205656 680.443914418956 549.9740413885115 679.7598704492178 549.9762000000001 678.91465 L 549.9762000000001 671.02589 C 549.9762185679032 670.6192589833945 549.8146898270242 670.2292779158174 549.5271535889815 669.9417510547719 C 549.2396173509389 669.6542241937263 548.8496310157838 669.4927081710205 548.443 669.49274 Z" stroke-linecap="round" />
</g>
<g transform="matrix(0.56 0 0 0.56 219.6 402.27)" id="A7f357Cr_AMNyqmCwmQQM"  >
<path style="stroke: none; stroke-width: 1; stroke-dasharray: none; stroke-linecap: butt; stroke-dashoffset: 0; stroke-linejoin: miter; stroke-miterlimit: 4; fill: rgb(255,184,184); fill-rule: nonzero; opacity: 1;" vector-effect="non-scaling-stroke"  transform=" translate(-23.18, -23.18)" d="M 0 23.17592 C 0 10.376210000000002 10.37621 0 23.17592 0 C 35.97563 0 46.35184 10.37621 46.35184 23.17592 C 46.35184 35.97563 35.97563 46.35184 23.17592 46.35184 C 10.376210000000002 46.35184 0 35.97563 0 23.17592 z" stroke-linecap="round" />
</g>
<g transform="matrix(0.56 0 0 0.56 310.85 404.77)" id="gIiVk1GlFqjLcjXzJZRGp"  >
<path style="stroke: none; stroke-width: 1; stroke-dasharray: none; stroke-linecap: butt; stroke-dashoffset: 0; stroke-linejoin: miter; stroke-miterlimit: 4; fill: rgb(255,184,184); fill-rule: nonzero; opacity: 1;" vector-effect="non-scaling-stroke"  transform=" translate(-23.18, -23.18)" d="M 0 23.17592 C 0 10.376210000000002 10.37621 0 23.17592 0 C 35.97563 0 46.35184 10.37621 46.35184 23.17592 C 46.35184 35.97563 35.97563 46.35184 23.17592 46.35184 C 10.376210000000002 46.35184 0 35.97563 0 23.17592 z" stroke-linecap="round" />
</g>
<g transform="matrix(0.56 0 0 0.56 437.67 262.53)" id="sgymftbEqFfGj9dvGHkgP"  >
<path style="stroke: none; stroke-width: 1; stroke-dasharray: none; stroke-linecap: butt; stroke-dashoffset: 0; stroke-linejoin: miter; stroke-miterlimit: 4; fill: rgb(63,61,86); fill-rule: nonzero; opacity: 1;" vector-effect="non-scaling-stroke"  transform=" translate(-942.02, -471.92)" d="M 956.21158 444.57229 C 953.92139 440.78451 951.20758 436.74029 946.95758 435.50347 C 942.03578 434.07116 936.97987 436.91647 932.69129 439.72426 C 919.8659695501151 448.121380925521 907.514931279532 457.22147371213305 895.6947699999998 466.98284000000007 L 895.7076999999999 467.12984 C 904.9101599999999 466.49522 912.5474999999999 490.96446000000003 921.7499399999999 490.32984 C 928.3987099999999 489.87133 936.8410099999999 464.24573 942.7166799999999 461.10044 C 944.9462999999998 459.90693 947.1196799999999 458.31263 949.6462299999998 458.20153 C 952.7852299999998 458.06353 955.5222299999998 460.25578 957.6730799999998 462.54618999999997 C 970.3962999999998 476.09468 974.0781499999998 496.81356999999997 988.3523199999998 508.71693999999997 C 979.3514696330116 486.51926837688404 968.6041906678172 465.07046391019276 956.2115800000001 444.57229000000007 Z" stroke-linecap="round" />
</g>
<g transform="matrix(0.56 0 0 0.56 432.93 261.63)" id="kG0OhAuh9Zfd3yTaDv2N7"  >
<path style="stroke: none; stroke-width: 1; stroke-dasharray: none; stroke-linecap: butt; stroke-dashoffset: 0; stroke-linejoin: miter; stroke-miterlimit: 4; fill: rgb(63,61,86); fill-rule: nonzero; opacity: 1;" vector-effect="non-scaling-stroke"  transform=" translate(-933.6, -470.32)" d="M 980.7007 477.48019 Q 990.76881 495.66444 1002.05817 513.12654 L 1002.05817 513.13546 C 1002.01361 513.5455099999999 1001.95117 513.95557 1001.8888000000001 514.3655699999999 Q 1000.5250500000001 512.27974 999.1879500000001 510.17605999999995 Q 989.0529500000001 494.27833999999996 979.9251500000001 477.77435999999994 Q 975.5930400000002 469.92575999999997 971.4748700000001 461.95235999999994 Q 968.2926200000002 455.7750899999999 965.2441200000002 449.52649999999994 C 964.6647000000002 448.33207999999996 964.1031200000002 447.13759999999996 963.5416000000001 445.93425999999994 C 962.2223200000001 443.11745999999994 960.9209400000001 440.2828799999999 959.5303900000001 437.50176999999996 C 957.9437000000001 434.32845 956.0093900000002 431.01248999999996 953.0945800000002 428.88212999999996 C 951.7687591165443 427.8716586360819 950.1826911732096 427.25947003350325 948.5217900000001 427.11713 C 946.1818742174627 427.13132338134625 943.8908316760969 427.7881085121275 941.8987900000001 429.01577999999995 C 926.8199412614188 436.9417596827062 912.7456419269747 446.64683589059507 899.9771400000001 457.92328 C 887.1931555211385 469.1551430331316 875.765402386148 481.84234630194476 865.9263500000001 495.72679999999997 C 865.6232600000001 496.15464999999995 864.9101700000001 495.74458999999996 865.2132600000001 495.3078 C 866.4166000000001 493.6142 867.6288700000001 491.94732 868.8768300000002 490.28931 C 884.3436210293581 469.72211516101214 903.3068623629594 452.03515454601865 924.9001400000001 438.0365300000001 Q 930.3420400000002 434.50672 935.9978500000002 431.30661 C 937.8965000000002 430.22801999999996 939.8040700000003 429.16731999999996 941.7472700000002 428.16893 C 943.6072629196777 427.0785903003932 945.6936676285388 426.431921189277 947.8442700000002 426.2792 C 955.2427800000002 426.16332 959.0757100000002 434.54233 961.7052700000002 440.17586 Q 962.9353600000002 442.83664 964.2100500000001 445.48852 Q 969.0100500000001 455.51652 974.1846100000001 465.38410999999996 Q 977.36686 471.46789 980.7007 477.48019 Z" stroke-linecap="round" />
</g>
<g transform="matrix(0.56 0 0 0.56 395.04 252.71)" id="kmN5zbeGgzNsiiM_pP3q1"  >
<path style="stroke: none; stroke-width: 1; stroke-dasharray: none; stroke-linecap: butt; stroke-dashoffset: 0; stroke-linejoin: miter; stroke-miterlimit: 4; fill: rgb(63,61,86); fill-rule: nonzero; opacity: 1;" vector-effect="non-scaling-stroke"  transform=" translate(-866.38, -454.49)" d="M 899.24953 453.78486 C 898.81979 453.30579 898.39272 452.82673 897.96018 452.34767 C 894.54926 448.57538 890.88931 444.8469 886.2053500000001 442.68426 C 883.9720139676679 441.62053700236 881.5340001282598 441.05540623242985 879.0604300000001 441.02807 C 876.5081007077514 441.0981240604305 873.9916347137442 441.64693089984263 871.6419000000001 442.64595 C 870.52497 443.09216000000004 869.4326500000001 443.59859 868.3569000000001 444.13787 C 867.1277000000001 444.75655 865.9204100000001 445.41630000000004 864.7187500000001 446.08151000000004 Q 861.3351000000001 447.95396000000005 858.0392600000001 449.99066000000005 Q 851.4814900000001 454.04354000000006 845.3344600000001 458.71509000000003 Q 842.1478900000002 461.13779000000005 839.0928600000002 463.71926 Q 836.2513700000002 466.11726000000004 833.5248600000002 468.64403000000004 C 833.1361600000002 469.00264000000004 832.5557700000002 468.42229000000003 832.9444800000002 468.06368000000003 C 833.4235400000002 467.61746000000005 833.9080800000003 467.17399000000006 834.3926300000003 466.73599 Q 836.4457600000003 464.87999 838.5646300000003 463.0951 Q 842.4284800000003 459.83473 846.4924300000004 456.82622 Q 852.8120200000003 452.14507999999995 859.5667000000003 448.09905 Q 862.9421200000003 446.07878999999997 866.4104600000003 444.22821999999996 C 867.1086000000003 443.85591999999997 867.8149000000003 443.49183 868.5293500000002 443.14689999999996 C 870.1505117153588 442.32916586256044 871.8349697871212 441.64348073534967 873.5663500000003 441.09650999999997 C 876.0189214772055 440.3031104144712 878.613801615484 440.0482009006422 881.1738800000003 440.34918 C 883.6457279574594 440.7087266700423 886.0272582208157 441.53259567193305 888.1928800000003 442.77734 C 892.7918800000003 445.34785999999997 896.3587500000003 449.32271 899.8299500000003 453.20176999999995 C 900.18039 453.596 899.60268 454.17906 899.24953 453.78486 Z" stroke-linecap="round" />
</g>
<g transform="matrix(0.56 0 0 0.56 401.68 255.3)" id="64N3872wHLCTp1vFxYoQF"  >
<path style="stroke: none; stroke-width: 1; stroke-dasharray: none; stroke-linecap: butt; stroke-dashoffset: 0; stroke-linejoin: miter; stroke-miterlimit: 4; fill: rgb(63,61,86); fill-rule: nonzero; opacity: 1;" vector-effect="non-scaling-stroke"  transform=" translate(-878.15, -459.09)" d="M 865.59554 471.93469 C 864.4265744449547 471.99260220463276 863.2713454155443 471.66170588483925 862.3103100000001 470.99369 C 859.7649900000001 469.06555000000003 859.83202 464.43455 862.5140000000001 456.83517 C 863.9896528366775 452.6734963284892 867.1212003298939 449.30769266457884 871.1658000000001 447.53617 C 874.9561938648582 445.84159113793334 879.2838389949778 445.81585380480254 883.0941200000001 447.46523 Q 883.5877 447.67937 884.0673300000001 447.92571000000004 L 884.0673300000001 447.92571000000004 C 886.2487077492257 449.14710197428286 888.2934663902727 450.5978718271446 890.1668500000001 452.25336000000004 C 891.7594747947462 453.6350814134705 893.458083277662 454.8896800091769 895.2470300000001 456.0056 L 895.8441900000001 456.35554 L 895.2783700000001 456.75422000000003 C 880.83868 466.91979 871.04915 471.93469 865.59554 471.93469 Z" stroke-linecap="round" />
</g>
<g transform="matrix(0.56 0 0 0.56 416.85 230.57)" id="h6EnV0k5XFX13cFoWSfg2"  >
<path style="stroke: none; stroke-width: 1; stroke-dasharray: none; stroke-linecap: butt; stroke-dashoffset: 0; stroke-linejoin: miter; stroke-miterlimit: 4; fill: rgb(63,61,86); fill-rule: nonzero; opacity: 1;" vector-effect="non-scaling-stroke"  transform=" translate(-905.08, -415.21)" d="M 921.12073 411.43776 C 911.3292261140805 411.43631366311985 902.9048042995191 404.5126024516757 901.00673 394.90683 C 889.9218770439188 397.15127455538413 882.7481974220275 407.9481115310697 884.9742834321324 419.0366658775906 C 887.2003694422374 430.12522022411156 897.9853126803408 437.3167685516941 909.0775380122124 435.1090471908511 C 920.1697633440838 432.90132583000803 927.3791606579547 422.1283059020667 925.18981 411.03244 C 923.8502575274435 411.30221897470364 922.4871784866745 411.437994923273 921.12073 411.43776 Z" stroke-linecap="round" />
</g>
<g transform="matrix(0.56 0 0 0.56 116.6 229.79)" id="wLg5_GUv5f98LFVYBO8UK"  >
<path style="stroke: none; stroke-width: 1; stroke-dasharray: none; stroke-linecap: butt; stroke-dashoffset: 0; stroke-linejoin: miter; stroke-miterlimit: 4; fill: rgb(63,61,86); fill-rule: nonzero; opacity: 0.74;" vector-effect="non-scaling-stroke"  transform=" translate(-30.59, -30.59)" d="M 0 30.59452 C 0 13.69763 13.69763 0 30.59452 0 C 47.49141 0 61.18904 13.69763 61.18904 30.59452 C 61.18904 47.49141 47.49141 61.18904 30.59452 61.18904 C 13.69763 61.18904 0 47.49141 0 30.59452 z" stroke-linecap="round" />
</g>
<g transform="matrix(0.56 0 0 0.56 133.84 229.79)" id="ugCFbKFc68ZHt4rd3XKlS"  >
<path style="stroke: none; stroke-width: 1; stroke-dasharray: none; stroke-linecap: butt; stroke-dashoffset: 0; stroke-linejoin: miter; stroke-miterlimit: 4; fill: rgb(2,170,176); fill-rule: nonzero; opacity: 0.74;" vector-effect="non-scaling-stroke"  transform=" translate(-30.59, -30.59)" d="M 0 30.59452 C 0 13.69763 13.69763 0 30.59452 0 C 47.49141 0 61.18904 13.69763 61.18904 30.59452 C 61.18904 47.49141 47.49141 61.18904 30.59452 61.18904 C 13.69763 61.18904 0 47.49141 0 30.59452 z" stroke-linecap="round" />
</g>
<g transform="matrix(0.56 0 0 0.56 125.36 216.05)" id="oFzGXYzVx5ml0ukBNg7-T"  >
<path style="stroke: none; stroke-width: 1; stroke-dasharray: none; stroke-linecap: butt; stroke-dashoffset: 0; stroke-linejoin: miter; stroke-miterlimit: 4; fill: rgb(255,101,132); fill-rule: nonzero; opacity: 0.74;" vector-effect="non-scaling-stroke"  transform=" translate(-30.59, -30.59)" d="M 0 30.59452 C 0 13.69763 13.69763 0 30.59452 0 C 47.49141 0 61.18904 13.69763 61.18904 30.59452 C 61.18904 47.49141 47.49141 61.18904 30.59452 61.18904 C 13.69763 61.18904 0 47.49141 0 30.59452 z" stroke-linecap="round" />
</g>
<g transform="matrix(0.56 0 0 0.56 148.46 218.54)" id="zbemfQXg9THuN6OwN4OOh"  >
<path style="stroke: none; stroke-width: 1; stroke-dasharray: none; stroke-linecap: butt; stroke-dashoffset: 0; stroke-linejoin: miter; stroke-miterlimit: 4; fill: rgb(63,61,86); fill-rule: nonzero; opacity: 1;" vector-effect="non-scaling-stroke"  transform=" translate(-41.19, -0.89)" d="M 0 1.78276 L 0 0 L 82.37184 0 L 82.37184 1.78276 z" stroke-linecap="round" />
</g>
<g transform="matrix(0.56 0 0 0.56 170.73 211.43)" id="SP0bRKuX6c9ImHf39HTNF"  >
<path style="stroke: none; stroke-width: 1; stroke-dasharray: none; stroke-linecap: butt; stroke-dashoffset: 0; stroke-linejoin: miter; stroke-miterlimit: 4; fill: rgb(63,61,86); fill-rule: nonzero; opacity: 1;" vector-effect="non-scaling-stroke"  transform=" translate(-3.57, -3.57)" d="M 0 3.56553 C 0 1.5963399999999999 1.59634 0 3.56553 0 C 5.53472 0 7.13106 1.59634 7.13106 3.56553 C 7.13106 5.53472 5.53472 7.13106 3.56553 7.13106 C 1.5963399999999999 7.13106 0 5.53472 0 3.56553 z" stroke-linecap="round" />
</g>
<g transform="matrix(0.56 0 0 0.56 424.93 303.08)" id="jmSW5Ugjfy9w3-Zu8_Gv7"  >
<path style="stroke: none; stroke-width: 1; stroke-dasharray: none; stroke-linecap: butt; stroke-dashoffset: 0; stroke-linejoin: miter; stroke-miterlimit: 4; fill: rgb(63,61,86); fill-rule: nonzero; opacity: 1;" vector-effect="non-scaling-stroke"  transform=" translate(-919.42, -543.87)" d="M 978.54352 541.67752 C 983.7670499999999 545.35893 988.7855199999999 549.1116599999999 994.5259799999999 551.94625 C 994.4189799999999 552.38302 994.3031399999999 552.82871 994.1961799999999 553.2654799999999 C 993.492 552.93567 992.8056199999999 552.5880199999999 992.1193 552.2314799999999 C 986.29855 549.1829099999999 981.2889899999999 545.03802 975.82481 541.4368 C 973.1158246892509 539.5646249117132 970.1572427241132 538.0823312495302 967.03581 537.03338 C 963.7819817739735 536.0556322033287 960.381630765749 535.6573639573605 956.98993 535.8567499999999 C 942.8437 536.5520499999999 930.72093 544.9934099999999 917.5730599999999 549.2453199999999 C 911.13725 551.3311699999999 904.2914499999999 552.4453999999998 897.5793699999999 551.1350399999999 C 890.8672399999999 549.8247399999999 884.9038999999999 546.2592099999999 878.97619 543.0324099999999 C 873.12873 539.84125 866.75538 536.6322999999999 859.92737 536.6322999999999 C 854.36516 536.6411699999999 848.5177 538.8696199999998 845.54051 543.7900699999999 C 845.3481607390784 544.0956278699219 844.9477339431033 544.1928920351645 844.6366471481863 544.00961940743 C 844.3255603532693 543.8263467796955 844.2165528027574 543.4289561775086 844.3905900000001 543.1126099999999 C 845.0565424519848 541.9912326866959 845.8755978579893 540.9681867072106 846.8241 540.0730199999999 C 850.71051 536.3916099999999 856.42425 534.9386499999999 861.6745000000001 535.3665 C 868.4668200000001 535.91915 874.6619300000001 539.12816 880.5361100000001 542.3549499999999 C 886.7669100000002 545.7778299999999 893.1491800000001 549.4592399999999 900.3515600000001 550.2080199999999 C 907.46477 550.9567499999999 914.5067 549.0937999999999 921.1028900000001 546.5890199999999 C 933.8764100000001 541.73102 946.4805600000001 533.6372199999998 960.6891800000001 534.5375199999999 C 967.39232 534.96539 973.13282 537.8713 978.54352 541.67752 Z" stroke-linecap="round" />
</g>
<g transform="matrix(0.56 0 0 0.56 130.34 166.77)" id="DPrXK5XRaGuGscWr1YNu6"  >
<path style="stroke: none; stroke-width: 1; stroke-dasharray: none; stroke-linecap: butt; stroke-dashoffset: 0; stroke-linejoin: miter; stroke-miterlimit: 4; fill: rgb(2,170,176); fill-rule: nonzero; opacity: 1;" vector-effect="non-scaling-stroke"  transform=" translate(-396.7, -302)" d="M 419.43332 283.881 L 419.43332 285.69052999999997 C 418.8344258788948 285.572114269324 418.22540867923937 285.51240151276517 417.61492 285.51223999999996 L 408.29105 285.51223999999996 L 408.29105 305.53268999999995 C 408.2874861879696 311.7045985416712 403.2850585384805 316.7070306664442 397.11314999999996 316.71059999999994 L 383.33237 316.71059999999994 L 383.33237 319.79479999999995 C 383.33235158104924 321.0311382512187 383.5777611202799 322.2551812100771 384.05437 323.39595999999995 L 382.1468 323.39595999999995 C 381.7481717911752 322.2373092388198 381.54631231762244 321.02010212276497 381.54958999999997 319.79479999999995 L 381.54958999999997 316.71059999999994 L 373.97285 316.71059999999994 L 373.97285 314.92783999999995 L 381.54958999999997 314.92783999999995 L 381.54958999999997 294.90741 C 381.55315381747243 288.7354975562765 386.55558755627646 283.7330638174725 392.72749999999996 283.72950000000003 L 406.50827999999996 283.72950000000003 L 406.50827999999996 280.60966 L 408.29103999999995 280.60966 L 408.29103999999995 283.72950000000003 L 417.61490999999995 283.72950000000003 C 418.2241725384734 283.73012200904753 418.832354389408 283.78079240264225 419.43332 283.881 Z" stroke-linecap="round" />
</g>
<g transform="matrix(0.56 0 0 0.56 123.56 161.75)" id="JPv51ztHqZ3hEwXQbYTKS"  >
<path style="stroke: none; stroke-width: 1; stroke-dasharray: none; stroke-linecap: butt; stroke-dashoffset: 0; stroke-linejoin: miter; stroke-miterlimit: 4; fill: rgb(63,61,86); fill-rule: nonzero; opacity: 1;" vector-effect="non-scaling-stroke"  transform=" translate(-384.67, -293.09)" d="M 397.11315 269.46739 L 372.22573 269.46739 C 366.0538214615195 269.47095933355575 361.05139381203037 274.47339145832876 361.04783 280.6453 L 361.04783 305.53271 C 361.05139381203037 311.70461854167127 366.0538214615195 316.7070506664443 372.22573 316.71062 L 397.11315 316.71062 C 403.28505853848054 316.7070506664443 408.28748618796965 311.70461854167127 408.29105000000004 305.53271 L 408.29105000000004 280.60971 C 408.2688840712311 274.4512934802702 403.27160588991404 269.4699219681567 397.11315 269.46739 Z M 406.50829000000004 305.53271 C 406.5013160706081 310.71861272128774 402.2990527138619 314.9208805508394 397.11315 314.92786 L 372.22573 314.92786 C 367.0398272861381 314.9208805508394 362.83756392939193 310.71861272128774 362.83059 305.53271 L 362.83059 280.6453 C 362.83756394203044 275.45939890373876 367.03982890373874 271.25713394203046 372.22573 271.25016 L 397.11315 271.25016 C 402.28557516123544 271.2561234600853 406.48266802733957 275.4372948615015 406.50829000000004 280.60966 Z" stroke-linecap="round" />
</g>
<g transform="matrix(0.56 0 0 0.56 135.11 169.78)" id="-ROayidC46voNp4VSdnJM"  >
<path style="stroke: none; stroke-width: 1; stroke-dasharray: none; stroke-linecap: butt; stroke-dashoffset: 0; stroke-linejoin: miter; stroke-miterlimit: 4; fill: rgb(63,61,86); fill-rule: nonzero; opacity: 1;" vector-effect="non-scaling-stroke"  transform=" translate(-405.17, -307.35)" d="M 381.5496 314.92786 L 381.5496 316.71062 L 383.33237 316.71062 L 383.33237 314.92786 Z M 381.5496 314.92786 L 381.5496 316.71062 L 383.33237 316.71062 L 383.33237 314.92786 Z M 419.43332 283.881 C 418.8323582364829 283.7807862476575 418.22417974880807 283.7301091664583 417.61492 283.72947999999997 L 392.72751 283.72947999999997 C 386.5555975562765 283.73304381747243 381.55316381747247 288.73547755627646 381.5496 294.90738999999996 L 381.5496 319.79479999999995 C 381.54632231762247 321.02010212276497 381.7481817911752 322.2373092388198 382.14681 323.39595999999995 C 383.68945342878175 327.92513996488157 387.9428243466437 330.9709389732838 392.72751 330.9726999999999 L 417.61492 330.9726999999999 C 423.78682854167124 330.9691361879695 428.78926066644425 325.9667085384804 428.79283 319.7947999999999 L 428.79283 294.90741 C 428.7913326146513 289.4369016035715 424.8309206686416 284.7711524473015 419.43332 283.881 Z M 427.01007 319.79479999999995 C 427.0030905508394 324.98070271386183 422.80082272128766 329.182966070608 417.61492 329.18994 L 392.72751 329.18994 C 387.5417776238307 329.18255952755777 383.3397504724421 324.98053237616926 383.33236999999997 319.79479999999995 L 383.33236999999997 294.90741 C 383.3393384349111 289.7215049984978 387.54160500591775 285.5192339546823 392.72751 285.51226 L 417.61492 285.51226 C 422.80289946934516 285.5142357384188 427.0080942615812 289.71943053065485 427.01007 294.90741 Z M 381.5496 314.92779999999993 L 381.5496 316.71055999999993 L 383.33237 316.71055999999993 L 383.33237 314.92779999999993 Z" stroke-linecap="round" />
</g>
<g transform="matrix(0.56 0 0 0.56 82.08 318.67)" id="60EYgXMIpaUvX458R9UGb"  >
<path style="stroke: none; stroke-width: 1; stroke-dasharray: none; stroke-linecap: butt; stroke-dashoffset: 0; stroke-linejoin: miter; stroke-miterlimit: 4; fill: rgb(2,170,176); fill-rule: nonzero; opacity: 1;" vector-effect="non-scaling-stroke"  transform=" translate(-311.08, -571.53)" d="M 363.94482 547.30213 L 258.227 547.30213 C 256.69489933760974 547.3030492921014 255.45173668121143 548.5422202176723 255.44588999999996 550.0743100000001 L 255.44588999999996 556.3407500000001 C 258.933731888689 569.6995018316576 263.1563934078077 582.8555189389693 268.0946000000001 595.7487500000002 L 363.94483999999994 595.7487500000001 C 364.68029322542355 595.7494859785281 365.38583575423246 595.4576542009047 365.90587997756853 594.9376099775686 C 366.42592420090455 594.4175657542326 366.717755978528 593.7120232254236 366.71701999999993 592.97657 L 366.71701999999993 550.07431 C 366.71537755006534 548.543950296518 365.47517971529163 547.3037614091351 363.94482 547.30213 Z" stroke-linecap="round" />
</g>
<g transform="matrix(0.56 0 0 0.56 84.54 342.04)" id="hexXgqPq1hSqY0JgT1djs"  >
<path style="stroke: none; stroke-width: 1; stroke-dasharray: none; stroke-linecap: butt; stroke-dashoffset: 0; stroke-linejoin: miter; stroke-miterlimit: 4; fill: rgb(228,228,228); fill-rule: nonzero; opacity: 1;" vector-effect="non-scaling-stroke"  transform=" translate(-315.43, -613)" d="M 353.87222 609.66321 L 273.737 609.66321 C 274.69078 611.9005800000001 275.66241 614.12012 276.66968 616.33073 L 353.87223000000006 616.33073 C 358.22216 616.39313 358.1776 609.6008 353.87222 609.66321 Z" stroke-linecap="round" />
</g>
<g transform="matrix(0.56 0 0 0.56 86.49 350.65)" id="eyjvmj1DETqR-hLtFByaO"  >
<path style="stroke: none; stroke-width: 1; stroke-dasharray: none; stroke-linecap: butt; stroke-dashoffset: 0; stroke-linejoin: miter; stroke-miterlimit: 4; fill: rgb(228,228,228); fill-rule: nonzero; opacity: 1;" vector-effect="non-scaling-stroke"  transform=" translate(-318.9, -628.28)" d="M 353.87222 624.94145 L 280.68981 624.94145 Q 282.29422 628.2975 283.98787000000004 631.60902 L 353.87222 631.60902 C 358.22216 631.67142 358.1776 624.888 353.87222 624.94145 Z" stroke-linecap="round" />
</g>
<g transform="matrix(0.56 0 0 0.56 88.69 359.27)" id="VSsmmJbvBKTQr4Hti4fpV"  >
<path style="stroke: none; stroke-width: 1; stroke-dasharray: none; stroke-linecap: butt; stroke-dashoffset: 0; stroke-linejoin: miter; stroke-miterlimit: 4; fill: rgb(228,228,228); fill-rule: nonzero; opacity: 1;" vector-effect="non-scaling-stroke"  transform=" translate(-322.8, -643.56)" d="M 353.87222 640.22866 L 288.4894 640.22866 C 289.68381999999997 642.46604 290.91393 644.68557 292.16188 646.89618 L 353.87221999999997 646.89618 C 358.22216 646.95858 358.1776 640.16626 353.87222 640.22866 Z" stroke-linecap="round" />
</g>
<g transform="matrix(0.56 0 0 0.56 415.82 138.62)" id="cvS99W8lKtTb7J1FE14fU"  >
<path style="stroke: none; stroke-width: 1; stroke-dasharray: none; stroke-linecap: butt; stroke-dashoffset: 0; stroke-linejoin: miter; stroke-miterlimit: 4; fill: rgb(63,61,86); fill-rule: nonzero; opacity: 1;" vector-effect="non-scaling-stroke"  transform=" translate(-903.25, -252.06)" d="M 901.93959 229.3327 L 901.43166 229.3327 C 903.0127330437716 229.334128105522 904.5718552782074 229.70286121061255 905.9860699999999 230.40982 L 903.6744799999999 230.40982 C 898.4883280485934 230.4156836012597 894.2855836012596 234.61842804859347 894.2797199999999 239.80458 L 894.2797199999999 264.69275999999996 C 894.2855836012595 269.8789119514065 898.4883280485934 274.0816563987403 903.6744799999999 274.08752 L 905.1481099999999 274.08752 C 903.9640240497041 274.5520437512429 902.7036028485593 274.7913591238097 901.4316599999999 274.79316 L 901.9395899999998 274.79316 C 907.6177705905961 274.7866298115495 912.2192153317662 270.18518059694213 912.22574 264.507 L 912.22574 239.61884 C 912.2192043129851 233.94066721354164 907.6177627928095 229.33923016680023 901.93959 229.3327 Z" stroke-linecap="round" />
</g>
<g transform="matrix(0.56 0 0 0.56 415.82 138.62)" id="G9Q5E8QXhEVphj1gX3hGi"  >
<path style="stroke: none; stroke-width: 1; stroke-dasharray: none; stroke-linecap: butt; stroke-dashoffset: 0; stroke-linejoin: miter; stroke-miterlimit: 4; fill: rgb(0,0,0); fill-rule: nonzero; opacity: 0.21;" vector-effect="non-scaling-stroke"  transform=" translate(-903.25, -252.06)" d="M 901.93959 229.3327 L 901.43166 229.3327 C 903.0127330437716 229.334128105522 904.5718552782074 229.70286121061255 905.9860699999999 230.40982 L 903.6744799999999 230.40982 C 898.4883280485934 230.4156836012597 894.2855836012596 234.61842804859347 894.2797199999999 239.80458 L 894.2797199999999 264.69275999999996 C 894.2855836012595 269.8789119514065 898.4883280485934 274.0816563987403 903.6744799999999 274.08752 L 905.1481099999999 274.08752 C 903.9640240497041 274.5520437512429 902.7036028485593 274.7913591238097 901.4316599999999 274.79316 L 901.9395899999998 274.79316 C 907.6177705905961 274.7866298115495 912.2192153317662 270.18518059694213 912.22574 264.507 L 912.22574 239.61884 C 912.2192043129851 233.94066721354164 907.6177627928095 229.33923016680023 901.93959 229.3327 Z" stroke-linecap="round" />
</g>
<g transform="matrix(0.56 0 0 0.56 378.65 138.62)" id="cRDALBgV086vxE1D8l55B"  >
<path style="stroke: none; stroke-width: 1; stroke-dasharray: none; stroke-linecap: butt; stroke-dashoffset: 0; stroke-linejoin: miter; stroke-miterlimit: 4; fill: rgb(2,170,176); fill-rule: nonzero; opacity: 1;" vector-effect="non-scaling-stroke"  transform=" translate(-837.29, -252.06)" d="M 835.97735 229.3327 L 835.46942 229.3327 C 837.0504930437717 229.334128105522 838.6096152782075 229.70286121061255 840.02383 230.40982 L 837.71224 230.40982 C 832.526090329989 230.41568910023693 828.3233491002369 234.61843032998897 828.3174799999999 239.80458 L 828.3174799999999 264.69275999999996 C 828.3233491002369 269.87890967001096 832.526090329989 274.081650899763 837.71224 274.08752 L 839.1858699999999 274.08752 C 838.0017840497042 274.5520437512429 836.7413628485593 274.7913591238097 835.4694199999999 274.79316 L 835.9773499999999 274.79316 C 841.6555305905962 274.7866298115495 846.2569753317663 270.18518059694213 846.2635 264.507 L 846.2635 239.61884 C 846.2569643129851 233.94066721354164 841.6555227928095 229.33923016680023 835.97735 229.3327 Z" stroke-linecap="round" />
</g>
<g transform="matrix(0.56 0 0 0.56 378.65 138.62)" id="-u3zGGcSviPQad733fHlg"  >
<path style="stroke: none; stroke-width: 1; stroke-dasharray: none; stroke-linecap: butt; stroke-dashoffset: 0; stroke-linejoin: miter; stroke-miterlimit: 4; fill: rgb(0,0,0); fill-rule: nonzero; opacity: 0.21;" vector-effect="non-scaling-stroke"  transform=" translate(-837.29, -252.06)" d="M 835.97735 229.3327 L 835.46942 229.3327 C 837.0504930437717 229.334128105522 838.6096152782075 229.70286121061255 840.02383 230.40982 L 837.71224 230.40982 C 832.526090329989 230.41568910023693 828.3233491002369 234.61843032998897 828.3174799999999 239.80458 L 828.3174799999999 264.69275999999996 C 828.3233491002369 269.87890967001096 832.526090329989 274.081650899763 837.71224 274.08752 L 839.1858699999999 274.08752 C 838.0017840497042 274.5520437512429 836.7413628485593 274.7913591238097 835.4694199999999 274.79316 L 835.9773499999999 274.79316 C 841.6555305905962 274.7866298115495 846.2569753317663 270.18518059694213 846.2635 264.507 L 846.2635 239.61884 C 846.2569643129851 233.94066721354164 841.6555227928095 229.33923016680023 835.97735 229.3327 Z" stroke-linecap="round" />
</g>
<g transform="matrix(0.56 0 0 0.56 369.05 138.67)" id="12lvpHWt2GquIVetAI_rw"  >
<path style="stroke: none; stroke-width: 1; stroke-dasharray: none; stroke-linecap: butt; stroke-dashoffset: 0; stroke-linejoin: miter; stroke-miterlimit: 4; fill: rgb(2,170,176); fill-rule: nonzero; opacity: 1;" vector-effect="non-scaling-stroke"  transform=" translate(-820.26, -252.14)" d="M 837.8118 274.165 C 832.6256480485935 274.1591363987403 828.4229036012596 269.95639195140654 828.4170399999999 264.77024 L 828.4170399999999 239.88205 C 828.4229091002369 234.69590032998897 832.625650329989 230.49315910023694 837.8118 230.48729 L 840.12339 230.48729 C 838.7091764222629 229.7803378980145 837.1500590239101 229.41160512704275 835.56899 229.41017 L 810.68081 229.41017 C 805.0026411124319 229.41670567618326 800.4012056761832 234.0181411124319 800.3946699999999 239.69630999999998 L 800.3946699999999 264.58448999999996 C 800.4011726844622 270.2626725753802 805.0026274246197 274.8641273155377 810.68081 274.87062999999995 L 835.569 274.87062999999995 C 836.8409396854254 274.8688299898882 838.1013577682754 274.6295145654545 839.28544 274.16498999999993 Z" stroke-linecap="round" />
</g>
<g transform="matrix(0.56 0 0 0.56 406.22 138.67)" id="bhCKlOGAd15el7z-Rgs0K"  >
<path style="stroke: none; stroke-width: 1; stroke-dasharray: none; stroke-linecap: butt; stroke-dashoffset: 0; stroke-linejoin: miter; stroke-miterlimit: 4; fill: rgb(63,61,86); fill-rule: nonzero; opacity: 1;" vector-effect="non-scaling-stroke"  transform=" translate(-886.22, -252.14)" d="M 903.774 274.165 C 898.5878480485935 274.1591363987403 894.3851036012596 269.95639195140654 894.37924 264.77024 L 894.37924 239.88205 C 894.385109100237 234.69590032998897 898.587850329989 230.49315910023694 903.774 230.48729 L 906.08559 230.48729 C 904.6713732744706 229.78033673591074 903.1122523601977 229.4116039430393 901.5311800000001 229.41017 L 876.64305 229.41017 C 870.964881112432 229.41670567618326 866.3634456761832 234.0181411124319 866.35691 239.69630999999998 L 866.35691 264.58448999999996 C 866.3634126844622 270.2626725753802 870.9648674246198 274.8641273155377 876.64305 274.87062999999995 L 901.53122 274.87062999999995 C 902.8031630264533 274.8688310001682 904.0635845719233 274.6295155622246 905.24767 274.16498999999993 Z" stroke-linecap="round" />
</g>
<g transform="matrix(0.56 0 0 0.56 439.49 140.41)" id="09joxXTkFCzr22ck_tiEL"  >
<path style="stroke: none; stroke-width: 1; stroke-dasharray: none; stroke-linecap: butt; stroke-dashoffset: 0; stroke-linejoin: miter; stroke-miterlimit: 4; fill: rgb(255,101,132); fill-rule: nonzero; opacity: 1;" vector-effect="non-scaling-stroke"  transform=" translate(-945.25, -255.24)" d="M 933.1633 235.60381 C 942.2969646127603 248.1695077030362 950.652950998367 261.28247480503217 958.1843900000001 274.8691600000001 L 942.603 274.86916 C 936.925405690849 274.8607340250128 932.3249059749871 270.260234309151 932.31648 264.58264 L 932.31648 239.69523 C 932.3155591048364 238.2878195527892 932.6037906693111 236.8952256278434 933.1633 235.60381 Z" stroke-linecap="round" />
</g>
<g transform="matrix(0.56 0 0 0.56 406.88 160.92)" id="rte3B2qi7a2N7kxH9_pHX"  >
<path style="stroke: none; stroke-width: 1; stroke-dasharray: none; stroke-linecap: butt; stroke-dashoffset: 0; stroke-linejoin: miter; stroke-miterlimit: 4; fill: rgb(204,204,204); fill-rule: nonzero; opacity: 1;" vector-effect="non-scaling-stroke"  transform=" translate(-887.38, -291.63)" d="M 901.92039 287.92793 L 893.20265 274.86916 L 886.8293 265.32245 C 886.0703044245734 264.1843366999257 884.7243672051222 263.5842700663763 883.3705177138081 263.78040196636147 C 882.016668222494 263.97653386634664 880.8963539215755 264.93388585519943 880.49154 266.24060000000003 L 877.8084699999999 274.86916 L 872.4066999999999 292.20655 C 871.9696759032453 293.62090483341035 872.455341462454 295.15801964482534 873.6256609382742 296.0645194961499 C 874.7959804140944 296.97101934747445 876.405704181011 297.05694008476587 877.6658699999999 296.28017 L 879.58237 295.09461 C 880.3666007486386 294.6111054406307 881.3451224496116 294.56761414760774 882.16915577576 294.97963793750074 C 882.9931891019086 295.39166172739374 883.5454978943957 296.20058150684366 883.6292199999999 297.11807 L 885.3852199999999 316.28276999999997 C 885.555904893326 318.10660201665115 887.0833208084525 319.50286809716084 888.9151099999999 319.50957 C 889.0221099999999 319.50957 889.12903 319.50065 889.2449099999999 319.49173 L 891.9369099999999 319.25103 C 892.874754870454 319.16593333182163 893.7401920879909 318.71114808502807 894.3422361956698 317.9870366734475 C 894.9442803033488 317.2629252618669 895.233442422931 316.32901066898506 895.1459099999998 315.39139 L 893.3364299999998 295.60271 C 893.2491132204863 294.6565680531791 893.6735855308461 293.73579472832745 894.4497353989112 293.1877069745681 C 895.2258852669764 292.63961922080864 896.2356061656055 292.5476194116117 897.0980299999999 292.94641 L 897.4902399999999 293.12464 C 898.9334119219874 293.7891255068457 900.6424085874497 293.4129181476532 901.6731469327208 292.2038421993319 C 902.7038852779917 290.99476625101056 902.8049210012745 289.24777072660504 901.9204399999999 287.92793 Z" stroke-linecap="round" />
</g>
</svg>